<?xml version="1.0" encoding="utf-8"?>
<!-- Generator: Adobe Illustrator 27.5.0, SVG Export Plug-In . SVG Version: 6.00 Build 0)  -->
<svg version="1.1" id="Ñëîé_1" xmlns="http://www.w3.org/2000/svg" xmlns:xlink="http://www.w3.org/1999/xlink" x="0px" y="0px"
	 viewBox="0 0 2700 2000" style="enable-background:new 0 0 2700 2000;" xml:space="preserve">
<rect id="_x38_" style="fill:#FFFFFF;" width="2700" height="2000"/>
<g>
	<g id="_x37_">
		<path style="fill:#CFDDF9;" d="M161.324,1475.198c0,0-16.704,98.913,52.497,123.678c94.653,33.873,650.256,122.871,515.281,190.5
			c-76.194,38.177,38.896,90.016,410.016,109.105c371.12,19.088,1007.932-55.705,793.781-166.37
			c-214.15-110.665,658.356-26.724,605.209-256.913H161.324z"/>
		<path style="fill:#D4E8FF;" d="M579.74,1473.994c0,0-280.309-630.508-78.589-770.906c134.83-93.843,277.744,113.028,448.321,3.589
			c151.862-97.432-59.861-342.875,193.525-407.083c266.331-67.489,484.524,479.063,707.995,403.494
			c271.168-91.699,540.908,94.451,307.803,772.109L579.74,1473.994z"/>
		<path style="fill:#DCE6FF;" d="M360.419,1419.938c-4.706-12.533-9.362-25.52-13.838-38.598l11.032-2.852
			c4.447,12.994,9.072,25.896,13.747,38.345L360.419,1419.938z M2333.965,1403.753l-11.422-1.226
			c1.896-13.341,3.698-26.778,5.353-39.935l11.441,1.088C2337.676,1376.883,2335.868,1390.366,2333.965,1403.753z M333.875,1342.461
			c-4.029-12.925-7.935-26.091-11.612-39.132l11.178-2.381c3.655,12.962,7.538,26.049,11.542,38.897L333.875,1342.461z
			 M2344.049,1323.541l-11.457-0.941c1.456-13.395,2.804-26.87,4.008-40.047l11.472,0.79
			C2346.865,1296.571,2345.511,1310.096,2344.049,1323.541z M311.747,1263.967c-3.324-13.169-6.487-26.484-9.401-39.577l11.3-1.899
			c2.896,13.011,6.039,26.245,9.343,39.332L311.747,1263.967z M2351.375,1243.089l-11.486-0.632
			c0.974-13.386,1.829-26.888,2.539-40.13l11.496,0.466C2353.211,1216.091,2352.354,1229.648,2351.375,1243.089z M294.098,1184.617
			c-2.559-13.33-4.929-26.771-7.043-39.952l11.399-1.381c2.1,13.092,4.454,26.444,6.996,39.686L294.098,1184.617z M2355.682,1162.46
			l-11.505-0.291c0.449-13.445,0.758-26.962,0.92-40.175l11.509,0.106C2356.444,1135.374,2356.133,1148.953,2355.682,1162.46z
			 M281.28,1104.552c-1.716-13.464-3.209-27.005-4.439-40.247l11.472-0.806c1.221,13.144,2.703,26.585,4.407,39.951L281.28,1104.552
			z M2345.145,1081.817c-0.135-13.455-0.429-26.967-0.874-40.162l11.505-0.292c0.446,13.263,0.742,26.844,0.879,40.367
			L2345.145,1081.817z M273.823,1023.951c-0.764-13.543-1.27-27.14-1.505-40.414l11.508-0.155
			c0.233,13.163,0.735,26.648,1.492,40.08L273.823,1023.951z M2342.42,1001.527c-0.79-13.437-1.762-26.92-2.887-40.074l11.477-0.742
			c1.133,13.23,2.109,26.791,2.904,40.305L2342.42,1001.527z M283.935,943.288l-11.507-0.206
			c0.321-13.579,0.939-27.181,1.837-40.425l11.49,0.588C284.864,916.364,284.252,929.835,283.935,943.288z M2335.541,921.46
			c-1.538-13.435-3.279-26.853-5.174-39.883l11.418-1.255c1.908,13.117,3.661,26.625,5.209,40.148L2335.541,921.46z M289.404,863.31
			l-11.452-1c1.564-13.528,3.469-27.049,5.665-40.188l11.39,1.438C292.836,836.554,290.95,849.928,289.404,863.31z
			 M2323.923,841.846c-2.395-13.35-5.023-26.65-7.813-39.53l11.31-1.851c2.813,12.983,5.463,26.387,7.875,39.84L2323.923,841.846z
			 M962.754,840.434c-15.992-2.192-27.56-8.519-43.584-19.447l7.275-7.752c14.037,9.548,24.176,15.275,37.535,17.251
			L962.754,840.434z M1002.685,816.633l-10.25-4.55c5.269-8.967,9.926-21.411,13.844-36.986l11.243,2.136
			C1013.336,793.877,1008.483,806.765,1002.685,816.633z M885.392,792.296c-9.168-8.875-18.967-19.088-29.954-31.225l9.044-6.186
			c10.832,11.965,20.473,22.016,29.473,30.727L885.392,792.296z M302.695,784.092l-11.299-1.906
			c2.982-13.352,6.355-26.666,10.027-39.572l11.173,2.402C308.97,757.758,305.639,770.905,302.695,784.092z M2306.808,763.046
			c-3.408-13.213-7.085-26.311-10.927-38.932l11.127-2.56c3.88,12.743,7.591,25.967,11.03,39.304L2306.808,763.046z
			 M1025.266,736.972l-11.415-1.277c1.767-11.941,3.352-25.017,4.843-39.976l11.466,0.864
			C1028.656,711.682,1027.055,724.893,1025.266,736.972z M827.25,728.841c-9.356-10.982-19.059-22.59-27.42-32.608l9.316-5.874
			c8.345,9.999,18.029,21.584,27.353,32.529L827.25,728.841z M1669.865,728.018c-8.963,0-17.757-2.327-26.138-6.918l6.136-8.464
			c12.589,6.908,24.974,6.923,38.347,1.414l4.952,9.03C1685.255,726.357,1677.417,728.018,1669.865,728.018z M324.839,706.464
			l-11.006-2.925c4.573-12.998,9.59-25.925,14.912-38.423l10.793,3.472C334.292,680.906,329.347,693.649,324.839,706.464z
			 M1730.797,696.927l-8.456-6.786c8.726-8.215,18.081-18.348,28.598-30.98l9.324,5.866
			C1749.474,677.983,1739.837,688.418,1730.797,696.927z M1611.001,690.048c-7.448-9.987-14.829-21.749-22.565-35.956l10.403-4.28
			c7.516,13.802,14.652,25.183,21.821,34.794L1611.001,690.048z M2283.164,685.619c-4.636-12.962-9.583-25.721-14.704-37.924
			l10.813-3.428c5.184,12.353,10.191,25.267,14.882,38.383L2283.164,685.619z M772.554,663.619
			c-10.53-12.508-19.305-22.777-27.617-32.317l9.175-6.039c8.35,9.584,17.161,19.895,27.73,32.449L772.554,663.619z
			 M1033.623,656.183l-11.485-0.646c0.872-11.721,1.76-24.894,2.714-40.273l11.492,0.538
			C1035.388,631.218,1034.498,644.427,1033.623,656.183z M356.789,631.557l-10.529-4.039c6.318-12.438,13.051-24.651,20.205-36.594
			l10.206,4.625C369.631,607.3,363.007,619.317,356.789,631.557z M1786.63,631.555l-9.617-5.497
			c8.179-10.808,16.627-22.259,25.178-33.827l9.682,5.408C1803.302,609.237,1794.844,620.698,1786.63,631.555z M1569.91,616.76
			c-5.213-11.366-10.6-23.766-16.469-37.909l10.826-3.394c5.826,14.038,11.168,26.337,16.334,37.598L1569.91,616.76z
			 M2251.529,610.521c-6.188-12.528-12.733-24.698-19.454-36.171l10.257-4.539c6.834,11.667,13.487,24.036,19.773,36.763
			L2251.529,610.521z M716.521,599.603c-10.443-11.267-20.164-21.296-29.718-30.658l8.61-6.638
			c9.676,9.482,19.512,19.629,30.071,31.021L716.521,599.603z M1038.739,575.449l-11.495-0.504
			c0.776-13.365,1.546-26.737,2.367-40.343l11.493,0.524C1040.283,548.726,1039.513,562.091,1038.739,575.449z M1837.106,563.852
			l-9.602-5.516c9.616-12.647,18.216-23.587,26.294-33.445l9.374,5.803C1855.174,540.456,1846.647,551.302,1837.106,563.852z
			 M399.495,561.029l-9.701-5.384c9.044-12.312,18.369-23.431,27.716-33.049l8.792,6.455
			C417.285,538.331,408.266,549.09,399.495,561.029z M1538.074,540.677c-5.278-13.444-10.457-26.896-14.826-38.281l10.918-3.165
			c4.364,11.369,9.534,24.8,14.801,38.215L1538.074,540.677z M655.158,539.976c-11.763-9.955-23.33-18.749-34.378-26.138
			l7.019-7.928c11.4,7.624,23.306,16.674,35.388,26.898L655.158,539.976z M2209.729,539.549c-8.247-11.697-16.894-22.76-25.7-32.881
			l9.179-6.035c9.032,10.381,17.893,21.715,26.334,33.689L2209.729,539.549z M458.585,501.835l-6.981-7.954
			c13.744-9.113,28.049-15.685,42.516-19.533l3.368,9.566C484.33,487.414,471.241,493.443,458.585,501.835z M1890.932,498.775
			l-8.941-6.299c10.793-11.576,21.021-21.537,31.267-30.452l8.141,7.07C1911.439,477.763,1901.473,487.471,1890.932,498.775z
			 M1043.683,494.842l-11.489-0.595c0.997-14.541,1.986-27.746,3.025-40.37l11.48,0.714
			C1045.664,467.174,1044.677,480.341,1043.683,494.842z M582.729,492.747c-14.362-6.212-28.488-10.177-41.986-11.784l1.562-9.911
			c14.741,1.756,30.066,6.042,45.551,12.74L582.729,492.747z M2154.421,476.576c-11.08-9.867-22.553-18.577-34.098-25.886
			l6.777-8.086c12.065,7.638,24.028,16.717,35.558,26.985L2154.421,476.576z M1508.568,464.116
			c-5.725-14.884-10.444-27.02-14.849-38.194l10.886-3.243c4.416,11.197,9.143,23.356,14.877,38.264L1508.568,464.116z
			 M1955.845,443.559l-6.596-8.197c14.154-8.607,28.451-14.982,42.493-18.946l3.554,9.514
			C1982.34,429.589,1969.066,435.52,1955.845,443.559z M2081.424,431.304c-14.254-5.226-28.683-8.46-42.885-9.613l1.07-9.961
			c15.375,1.249,30.948,4.733,46.287,10.357L2081.424,431.304z M1050.381,414.428l-11.464-0.885
			c1.434-14.036,2.994-27.591,4.638-40.29l11.438,1.118C1053.359,386.993,1051.807,400.469,1050.381,414.428z M1478.406,387.874
			c-5.561-13.492-10.802-25.826-16.023-37.705l10.752-3.569c5.249,11.944,10.516,24.341,16.105,37.9L1478.406,387.874z
			 M1060.852,334.482l-11.391-1.431c2.328-14.006,4.887-27.476,7.605-40.034l11.311,1.849
			C1065.688,307.287,1063.156,320.615,1060.852,334.482z M1445.285,312.817c-6.184-12.93-12.417-25.301-18.529-36.769l10.444-4.204
			c6.175,11.587,12.47,24.081,18.713,37.132L1445.285,312.817z M1078.15,255.72l-11.166-2.425
			c4.014-13.969,8.44-27.127,13.154-39.109l10.89,3.236C1086.419,229.138,1082.086,242.023,1078.15,255.72z M1406.317,240.146
			c-7.57-12.392-15.302-24.025-22.983-34.575l9.726-5.349c7.835,10.764,15.716,22.618,23.423,35.233L1406.317,240.146z
			 M1108.312,180.772l-10.321-4.428c7.557-13.309,15.938-25.077,24.909-34.978l9.041,6.19
			C1123.465,156.911,1115.515,168.086,1108.312,180.772z M1356.956,173.126c-10.056-10.958-20.436-20.665-30.85-28.851l7.72-7.42
			c10.875,8.548,21.684,18.652,32.128,30.032L1356.956,173.126z M1164.051,121.628l-6.205-8.426
			c13.634-7.585,28.655-12.517,44.647-14.658l1.752,9.887C1189.849,110.359,1176.326,114.799,1164.051,121.628z M1289.792,121.622
			c-13.407-6.282-27.372-10.577-41.509-12.765l2.018-9.849c15.343,2.375,30.467,7.021,44.953,13.809L1289.792,121.622z"/>
		<path style="fill:#EEF7FF;" d="M2413.843,1194.019c-95.508-12.305-86.862,172.621-223.001,172.621
			c-124.472,0-191.079-413.161-327.669-329.13c-549.125,337.825-121.87-237.045-491.108-248.281
			c-166.959-5.081-278.212,149.66-319.238,423.635c-59.47,247.683-197.388-188.912-339.322-148.318
			c-90.206,25.799-79.875,302.094-204.347,302.094c-136.139,0-127.171-155.502-222.678-143.197
			c-102.829,13.248-126.927,254.348-126.927,254.348h2380.894C2540.447,1477.79,2516.673,1207.267,2413.843,1194.019z"/>
		<path style="fill:#DCE6FF;" d="M2322.326,1388.111c-87.865-5.254-73.527,42.216-198.772,42.216
			c-114.511,0-111.364-106.388-187.994-128.998c-141.117-41.638-257.457,169.098-312.167,63.334
			c-103.911-280.638-406.972-421.375-546.785,0c-54.711,105.764-182.651-82.956-312.167-63.334
			c-79.722,12.078-73.483,128.998-187.994,128.998c-125.245,0-110.907-47.47-198.772-42.216
			c-94.601,5.657-122.857,89.679-122.857,89.679h2190.365C2445.183,1477.79,2416.927,1393.768,2322.326,1388.111z"/>
	</g>
	<g id="_x36_">
		<rect x="713.94" y="534.942" style="fill:#7689D6;" width="1385.853" height="992.222"/>
		<rect x="713.94" y="534.942" style="fill:#F49F9F;" width="1385.853" height="135.895"/>
		<rect x="623.343" y="534.942" style="fill:#FCB4B4;" width="1385.853" height="856.328"/>
		<rect x="623.343" y="670.836" style="fill:#8A9EDD;" width="1385.853" height="856.328"/>
		<rect x="713.94" y="761.432" style="fill:#D4E8FF;" width="155.44" height="155.44"/>
		<rect x="888.81" y="761.432" style="fill:#D4E8FF;" width="155.44" height="155.44"/>
		<rect x="1063.68" y="761.432" style="fill:#D4E8FF;" width="155.44" height="155.44"/>
		<rect x="1238.55" y="761.432" style="fill:#D4E8FF;" width="155.44" height="155.44"/>
		<rect x="1413.42" y="761.432" style="fill:#D4E8FF;" width="155.44" height="155.44"/>
		<rect x="1588.29" y="761.432" style="fill:#D4E8FF;" width="155.44" height="155.44"/>
		<rect x="1763.16" y="761.432" style="fill:#D4E8FF;" width="155.44" height="155.44"/>
		<rect x="713.94" y="934.664" style="fill:#D4E8FF;" width="155.44" height="155.44"/>
		<rect x="888.81" y="934.664" style="fill:#D4E8FF;" width="155.44" height="155.44"/>
		<rect x="1063.68" y="934.664" style="fill:#D4E8FF;" width="155.44" height="155.44"/>
		<rect x="1238.55" y="934.664" style="fill:#D4E8FF;" width="155.44" height="155.44"/>
		<rect x="1413.42" y="934.664" style="fill:#D4E8FF;" width="155.44" height="155.44"/>
		<rect x="1588.29" y="934.664" style="fill:#D4E8FF;" width="155.44" height="155.44"/>
		<rect x="1763.16" y="934.664" style="fill:#D4E8FF;" width="155.44" height="155.44"/>
		<rect x="713.94" y="1107.896" style="fill:#D4E8FF;" width="155.44" height="155.44"/>
		<rect x="888.81" y="1107.896" style="fill:#D4E8FF;" width="155.44" height="155.44"/>
		<rect x="1063.68" y="1107.896" style="fill:#D4E8FF;" width="155.44" height="155.44"/>
		<rect x="1238.55" y="1107.896" style="fill:#D4E8FF;" width="155.44" height="155.44"/>
		<rect x="1413.42" y="1107.896" style="fill:#D4E8FF;" width="155.44" height="155.44"/>
		<rect x="1588.29" y="1107.896" style="fill:#D4E8FF;" width="155.44" height="155.44"/>
		<rect x="1763.16" y="1107.896" style="fill:#D4E8FF;" width="155.44" height="155.44"/>
		<rect x="713.94" y="1281.127" style="fill:#D4E8FF;" width="155.44" height="155.44"/>
		<rect x="888.81" y="1281.127" style="fill:#D4E8FF;" width="155.44" height="155.44"/>
		<rect x="1063.68" y="1281.127" style="fill:#D4E8FF;" width="155.44" height="155.44"/>
		<rect x="1238.55" y="1281.127" style="fill:#D4E8FF;" width="155.44" height="155.44"/>
		<rect x="1413.42" y="1281.127" style="fill:#D4E8FF;" width="155.44" height="155.44"/>
		<rect x="1588.29" y="1281.127" style="fill:#D4E8FF;" width="155.44" height="155.44"/>
		<rect x="1763.16" y="1281.127" style="fill:#D4E8FF;" width="155.44" height="155.44"/>
		<g>
			<circle style="fill:#7689D6;" cx="791.66" cy="602.889" r="36.084"/>
			<path style="fill:#8A9EDD;" d="M835.608,454.465c-75.002,2.435-57.246,87.474-58.897,137.548
				c-8.962,11.518,0.17,29.85,14.949,29.38c14.775,0.47,23.914-17.864,14.948-29.38v-78.651c0-15.991,13.01-29.001,29-29.001
				c29.61,1.562,30.24,27.468,29,50.58h29.896C899.312,494.638,880.39,455.21,835.608,454.465z"/>
		</g>
		<path style="fill:#EB5648;" d="M801.286,839.153l36.916-36.915c2.658-2.658,2.658-6.968,0-9.626c-2.658-2.659-6.969-2.659-9.626,0
			l-36.916,36.915l-36.916-36.915c-2.658-2.658-6.968-2.658-9.626,0c-2.658,2.658-2.658,6.968,0,9.626l36.916,36.915l-36.916,36.915
			c-2.658,2.658-2.658,6.968,0,9.626c1.329,1.33,3.071,1.994,4.813,1.994c1.742,0,3.484-0.665,4.813-1.994l36.916-36.915
			l36.916,36.915c1.329,1.329,3.071,1.994,4.813,1.994s3.484-0.665,4.813-1.994c2.658-2.658,2.658-6.968,0-9.626L801.286,839.153z"
			/>
		<g>
			<circle style="fill:#7689D6;" cx="1314.882" cy="602.889" r="36.084"/>
			<path style="fill:#8A9EDD;" d="M1358.831,454.465c-75.002,2.435-57.246,87.474-58.897,137.547
				c-8.962,11.518,0.169,29.851,14.948,29.381c14.775,0.47,23.914-17.864,14.948-29.38v-78.651c0-15.991,13.01-29.001,29-29.001
				c29.609,1.562,30.24,27.468,29,50.58h29.896C1422.534,494.639,1403.613,455.21,1358.831,454.465z"/>
		</g>
		<g>
			<circle style="fill:#7689D6;" cx="1576.493" cy="602.889" r="36.084"/>
			<path style="fill:#8A9EDD;" d="M1620.442,454.465c-75.003,2.435-57.246,87.474-58.897,137.548
				c-8.962,11.518,0.17,29.85,14.949,29.38c14.775,0.47,23.914-17.865,14.948-29.381v-78.65c0-15.991,13.01-29.001,29.001-29.001
				c29.609,1.562,30.24,27.468,29,50.58h29.896C1684.145,494.639,1665.224,455.21,1620.442,454.465z"/>
		</g>
		<rect x="2034.866" y="670.836" style="fill:#B8D2FF;" width="9.059" height="856.328"/>
		<rect x="2065.064" y="670.836" style="fill:#B8D2FF;" width="9.059" height="856.328"/>
		<rect x="2069.594" y="772.661" style="fill:#EB5648;" width="55.797" height="130.459"/>
		<rect x="2039.395" y="869.435" style="fill:#FCB4B4;" width="55.797" height="130.459"/>
		<polygon style="fill:#8A9EDD;" points="791.094,1125.662 806.481,1171.095 854.445,1170.5 815.991,1199.174 831.379,1244.606 
			792.226,1216.895 753.772,1245.569 768.027,1199.769 728.874,1172.058 776.838,1171.463 		"/>
		<g>
			<path style="fill:#C92828;" d="M977.738,236.592c0,0,8.982-17.349,36.357-12.227c27.375,5.122,33.836,39.859,43.127,55.671
				c19.681,33.493,25.578,69.083,15.353,86.18c-11.356,18.988-36.432,11.563-73.053,8.158c-39.08-3.633-55.451-37.552-31.141-84.189
				L977.738,236.592z"/>
			<path style="fill:#3A72AA;" d="M989.097,317.236c-10.705,15.696-17.543,92.23-17.765,98.177
				c-12.593-0.93-42.849-3.166-55.749-4.12c-3.644-28.017,33.503-85.473,67.386-92.28c0-0.009,0-0.009,0-0.009
				C986.783,317.708,989.097,317.236,989.097,317.236z"/>
			<g>
				<path style="fill:#F99370;" d="M830.346,739.169l54.432-0.598c-0.14-8.701-2.457-26.266-0.73-36.193
					c-0.002,0-23.497,3.031-23.497,3.031c0.651,4.769,2.098,15.112-5.817,17.587c-10.255,3.207-21.42,2.22-27.82,10.111
					C825.252,735.758,827.217,739.203,830.346,739.169z"/>
				<path style="fill:#1D3F70;" d="M886.375,733.312c-0.202,1.843-0.691,3.637-1.596,5.26l-54.962,0.603
					c-2.673,0.029-4.636-2.58-3.777-5.111c2.022-5.915,9.173-14.545,34.493-16.149c0,0,8.647,2.471,22.789-0.25
					C883.322,717.666,887.205,725.84,886.375,733.312z"/>
				<path style="fill:#E8C0A6;" d="M842.198,731.946c-0.435,0-0.849-0.258-1.027-0.684c-2.069-4.947-5.718-6.427-5.872-6.488
					c-2.916-4.434,5.401-1.347,7.926,5.629C843.543,731.115,842.972,731.961,842.198,731.946z"/>
				<path style="fill:#E8C0A6;" d="M850.84,730.807c-0.471,0-0.908-0.301-1.06-0.773c-1.844-5.735-6.885-8.34-6.936-8.365
					c-2.66-5.164,7.019,0.288,9.055,7.683C852.139,730.055,851.578,730.818,850.84,730.807z"/>
				<path style="fill:#E8C0A6;" d="M860.673,729.488c-0.456,0-0.884-0.283-1.048-0.736c-2.144-5.953-6.982-9.155-7.031-9.186
					c-2.064-5.42,6.743,1.082,9.126,8.431C861.991,728.704,861.425,729.501,860.673,729.488z"/>
				<path style="fill:#395B96;" d="M826.071,733.974l60.305-0.662c-0.202,1.843-0.691,3.637-1.596,5.26l-54.962,0.603
					C827.107,739.209,825.136,736.517,826.071,733.974z"/>
			</g>
			<path style="fill:#3A72AA;" d="M1002.79,531.355c-26.792-1.126-73.463-15.881-93.594,18.203
				c-22.039,37.225-16.644,116.196-14.415,154.359c-29.411,9.471-45.223,0-45.223,0c-12.53-78.123-53.795-256.07,84.191-231.38
				c-0.003-0.005,92.537-0.005,92.537-0.005C1041.764,504.082,1027.924,530.828,1002.79,531.355z"/>
			<g>
				<path style="fill:#F99370;" d="M895.62,739.166l54.432-0.598c-0.14-8.701-2.457-26.266-0.73-36.193
					c-0.002,0-23.496,3.034-23.496,3.034c0.651,4.769,2.282,15.112-5.818,17.584c-10.277,3.136-21.42,2.22-27.82,10.111
					C890.525,735.755,892.491,739.2,895.62,739.166z"/>
				<path style="fill:#1D3F70;" d="M951.649,733.309c-0.202,1.843-0.691,3.637-1.596,5.26l-54.962,0.603
					c-2.672,0.029-4.636-2.58-3.777-5.111c2.022-5.915,9.173-14.546,34.493-16.149c0,0,8.647,2.471,22.79-0.25
					C948.596,717.663,952.478,725.837,951.649,733.309z"/>
				<path style="fill:#E8C0A6;" d="M907.471,731.943c-0.435,0-0.849-0.257-1.027-0.684c-2.069-4.947-5.718-6.427-5.872-6.488
					c-2.916-4.434,5.402-1.347,7.926,5.629C908.816,731.112,908.245,731.958,907.471,731.943z"/>
				<path style="fill:#E8C0A6;" d="M916.113,730.804c-0.471,0-0.908-0.301-1.06-0.773c-1.844-5.735-6.885-8.339-6.936-8.365
					c-2.66-5.164,7.019,0.288,9.055,7.683C917.413,730.052,916.852,730.814,916.113,730.804z"/>
				<path style="fill:#E8C0A6;" d="M925.946,729.485c-0.457,0-0.884-0.283-1.048-0.737c-2.144-5.953-6.982-9.155-7.031-9.186
					c-2.064-5.42,6.743,1.082,9.126,8.431C927.265,728.701,926.699,729.498,925.946,729.485z"/>
				<path style="fill:#395B96;" d="M891.344,733.971l60.305-0.662c-0.202,1.843-0.691,3.637-1.596,5.26l-54.962,0.603
					C892.38,739.206,890.409,736.514,891.344,733.971z"/>
			</g>
			<path style="fill:#23659B;" d="M941.282,472.532l-7.915,57.693c-34.6,13.628-36.928,51.001-40.085,91.984
				C877.258,558.892,878.487,493.921,941.282,472.532z"/>
			<path style="fill:#3A72AA;" d="M1037.657,534.03c-28.039,17.26-56.04-1.573-75.759,38.235
				c-15.914,34.854-6.99,101.458-2.62,131.653c-29.412,9.471-45.224,0-45.224,0c-17.439-67.391-57.324-224.005,55.381-231.382
				c30.861-0.983,71.414-0.713,98.69-2.356C1068.127,470.179,1075.701,510.612,1037.657,534.03z"/>
			<path style="fill:#3A72AA;" d="M1068.673,454.239c2.391,17.068-1.077,36.912-1.077,36.912
				c-36.434-11.582-69.556-12.653-124.898-20.383c34.952-104.692-46.004-31.439,46.399-153.533
				c0.222,0.018,22.671,2.051,22.875,2.064C1037.952,338.84,1054.688,364.746,1068.673,454.239z"/>
			<path style="fill:#23659B;" d="M941.883,391.917c-0.539,0.003-0.973-0.467-0.923-1.004c1.842-15.292,18.042-35.115,20.172-34.056
				c1.452,1.869-17.232,18.288-18.327,34.214C942.763,391.553,942.359,391.917,941.883,391.917z"/>
			<g id="_x31_5_2_">
				<polygon style="fill:#163260;" points="845.028,478.52 967.504,478.52 943.119,388.745 821.383,388.745 				"/>
				<rect x="845.028" y="478.076" style="fill:#234270;" width="122.476" height="6.096"/>
				<polygon style="fill:#0B274F;" points="941.279,388.745 945.66,388.745 969.544,478.076 1027.667,478.076 1027.667,484.172 
					965.465,484.172 965.465,478.719 				"/>
			</g>
			<path style="fill:#F99370;" d="M1052.244,336.686c28.233,21.161,43.313,59.243,35.856,93.873
				c-2.857,19.453-15.131,37.954-34.331,43.46c-9.479,3.791-53.699,9.888-51.639-5.808c0.701-3.766,4.041-5.153,7.276-6.158
				c5.331-1.88,10.826-3.957,15.909-6.267c9.103-4.725,20.806-9.152,22.788-19.372c4.219-23.865-5.558-47.196-23.391-62.775
				c0.032,0.019-0.084-0.071,0.18,0.12C1000.725,355.757,1027.933,318.911,1052.244,336.686z"/>
			<path style="fill:#3A72AA;" d="M1069.167,469.755c-14.375,6.418-27.99,8.388-38.456,8.767c0,0,2.416-15.618-8.869-22.052
				c63.576-48.316-27.227-68.651-9.787-139.647C1080.222,318.041,1150.606,421.367,1069.167,469.755z"/>
			<path style="fill:#F99370;" d="M975.153,478.076c0,0,5.455-19.072,38.018-16.875l6.819,16.875H975.153z"/>
			<path style="fill:#23659B;" d="M1038.265,477.995c-4.656,0.518-7.554,0.528-7.554,0.528s2.416-15.618-8.869-22.052
				c0,0,2.777-1.805,6.406-5.009C1028.248,451.462,1040.616,460.544,1038.265,477.995z"/>
			<path style="fill:#23659B;" d="M1027.667,454.131c-0.822,0.019-1.261-1.093-0.605-1.627c28.231-25.156,14.403-51.785-2.39-69.033
				c-0.825-0.846,0.553-2.167,1.359-1.26C1043.889,400.063,1057.436,429.562,1027.667,454.131z"/>
			<path style="fill:#23659B;" d="M1037.657,478.092c-5.278-3.075,14.827-1.541,30.118-8.769c0.473-0.193,1.014,0.032,1.209,0.505
				c0.194,0.473-0.032,1.015-0.505,1.208C1052.678,477.516,1037.862,478.088,1037.657,478.092z"/>
			<path style="fill:#F4D4BE;" d="M1018.354,345.393c-0.651,4.881-5.318,6.402-6.485,6.143
				c-16.397-7.007-4.733,15.122-11.479,17.376c-5.673,1.895-6.347-5.504-11.293-5.909c-7.18-0.588-8.641,3.322-11.162,0.945
				c-3.51-3.309,4.99-9.087,3.9-15.009c-0.765-4.158-9.032,0.021-8.923-8.537c0.13-8.406,9.751-21,10.056-21.389
				c0-0.009,0-0.009,0-0.009c6.055-3.378,19.237-1.841,25.222-1.768c0.093-0.602,3.864-0.412,3.864-0.412s2.638-0.582,5.179,0.381
				C1018.483,324.039,1019.654,338.066,1018.354,345.393z"/>
			<path style="fill:#F99370;" d="M989.649,309.102l-0.553,8.133c0,0-0.76,7.823-0.76,22.367c0,20.446,5.051,18.065,12.055,3.782
				c3.848-7.848,11.664-25.918,11.664-25.918s-0.035-5.348,0.391-8.627L989.649,309.102z"/>
			<path style="fill:#E57D61;" d="M1016.895,285.821c-0.093,0.387-0.201,0.777-0.33,1.152c-0.49-0.398-3.281,13.135-4.295,23.453
				c-9.782,5.73-21.101,4.969-23.04,4.371c0.523-15.266,1.806-38.11,13.56-42.365
				C1010.673,269.928,1019.027,277.701,1016.895,285.821z"/>
			<path style="fill:#C92828;" d="M987.256,235.531c-29.538-3.544-34.224,43.084-14.15,60.24L987.256,235.531z"/>
			<path style="fill:#F99370;" d="M1022.079,268.387c1.425,10.182,1.518,22.124-4.167,30.901l-0.013,0.004
				c-15.542,25.418-66.965,9.031-52.876-21.108c2.07-3.847,3.236-8.523,3.391-12.489
				C968.879,224.071,1017.965,232.806,1022.079,268.387z"/>
			<path style="fill:#C16256;" d="M983.216,273.807c-1.407-1.412,0.844-3.59,2.209-2.136
				C986.832,273.083,984.581,275.261,983.216,273.807z"/>
			<path style="fill:#C16256;" d="M970.232,275.535c-1.407-1.412,0.844-3.59,2.208-2.136
				C973.848,274.811,971.597,276.988,970.232,275.535z"/>
			<path style="fill:#C16256;" d="M977.967,287.078c-2.597,0.414-6.362-0.26-3.905-3.375c2.31-2.356,2.578-8.735,2.58-8.799
				c0.016-0.747,1.202-0.714,1.163,0.044c-0.011,0.28-0.288,6.893-2.913,9.569c-0.298,0.304-0.607,0.721-0.388,0.98
				c0.618,0.731,3.543,0.852,5.224-0.318c0.258-0.183,0.625-0.119,0.809,0.145C980.971,286.538,978.872,286.8,977.967,287.078z"/>
			<path style="fill:#E57D61;" d="M1022.079,268.387c1.425,10.182,1.518,22.124-4.167,30.901l-0.013,0.004
				c2.622-6.58,1.638-19.191,1.638-19.191l-3.623-4.628c-37.029-0.496-42.474-28.436-42.474-28.436
				C989.713,225.175,1020.147,244.918,1022.079,268.387z"/>
			<path style="fill:#C92828;" d="M976.278,243.528c0,0,5.506,27.509,39.021,29.174l8.979-9.304
				C1028.452,239.451,999.988,214.933,976.278,243.528z"/>
			<path style="fill:#F99370;" d="M1029.749,271.39c1.189,11.647-13.525,12.982-14.451,1.311
				C1014.11,261.055,1028.823,259.719,1029.749,271.39z"/>
			<path style="fill:#C16256;" d="M1026.284,268.376C1026.284,268.375,1026.284,268.375,1026.284,268.376
				c-1.499-4.617-10.384,0.313-6.603,0.487c0.015-0.204,3.951-2.563,5.178-0.516c-3.879,1.831-5.172,9.063-2.927,6.725
				c0.004-0.044,0.472-4.162,3.523-5.718C1026.971,279.872,1028.348,272.575,1026.284,268.376z"/>
			<path style="fill:#F4D4BE;" d="M1025.242,278.346c0.522,1.611-2.02,2.394-2.495,0.768
				C1022.225,277.504,1024.767,276.72,1025.242,278.346z"/>
			<path style="fill:#23659B;" d="M988.336,374.261c0.049,3.373-5.25,3.373-5.2,0C983.086,370.888,988.386,370.888,988.336,374.261z
				"/>
			<path style="fill:#23659B;" d="M983.23,392.571c0.049,3.373-5.25,3.373-5.2,0C977.98,389.198,983.279,389.198,983.23,392.571z"/>
			<path style="fill:#23659B;" d="M983.23,409.048c0.049,3.373-5.25,3.373-5.2,0C977.98,405.674,983.279,405.674,983.23,409.048z"/>
			<path style="fill:#23659B;" d="M893.864,690.809c0.481,8.175,0.916,13.109,0.916,13.109c-29.411,9.471-45.223,0-45.223,0
				s-0.824-4.101-2.092-11.174C847.817,692.919,866.314,702.01,893.864,690.809z"/>
			<path style="fill:#23659B;" d="M959.279,703.917c-29.412,9.471-45.224,0-45.224,0s-1.074-3.786-2.74-10.322
				c0,0,16.303,8.434,46.427,0C958.631,700.057,959.279,703.917,959.279,703.917z"/>
			<path style="fill:#E57D61;" d="M976.931,477.884c-5.787,0.178,15.278-14.274,21.562-10.74c0.051,0.51-0.319,0.965-0.827,1.016
				C985.812,469.399,977.93,477.847,976.931,477.884z"/>
			<path style="fill:#E57D61;" d="M985.854,478.21c-4.391-1.875,9.25-5.087,16.003-6.914c0.497-0.105,0.991,0.218,1.095,0.719
				c0.103,0.501-0.219,0.99-0.719,1.094C995.038,474.591,986.579,478.132,985.854,478.21z"/>
			<path style="fill:#C16256;" d="M988.04,269.089c-0.142,0-0.285-0.045-0.405-0.14c-3.697-2.893-7.059-1.953-7.2-1.911
				c-0.349,0.103-0.714-0.096-0.818-0.444c-0.104-0.348,0.092-0.713,0.439-0.818c0.165-0.051,4.132-1.198,8.39,2.134
				c0.287,0.225,0.337,0.639,0.113,0.925C988.429,269.002,988.236,269.089,988.04,269.089z"/>
			<path style="fill:#C16256;" d="M968.697,270.678c-0.127,0-0.255-0.037-0.368-0.113c-0.302-0.204-0.381-0.613-0.177-0.914
				c0.086-0.128,2.139-3.122,5.562-2.99c0.363,0.014,0.646,0.32,0.632,0.684c-0.014,0.364-0.318,0.654-0.684,0.632
				c-2.69-0.086-4.401,2.386-4.418,2.411C969.116,270.577,968.909,270.678,968.697,270.678z"/>
			<path style="fill:#C16256;" d="M982.925,293.299c-0.861,0-1.617-0.306-2.096-0.926c-1.022-1.322-0.347-3.499,1.538-4.955
				c1.884-1.456,4.161-1.562,5.183-0.24c0,0,0,0,0,0c1.021,1.322,0.346,3.499-1.538,4.955
				C985.012,292.907,983.901,293.299,982.925,293.299z M985.447,287.578c-0.653,0-1.484,0.271-2.274,0.882
				c-1.366,1.056-1.782,2.485-1.301,3.107c0.48,0.622,1.968,0.579,3.334-0.476c1.366-1.056,1.782-2.485,1.301-3.107l0,0
				C986.305,287.722,985.923,287.578,985.447,287.578z"/>
		</g>
		<g>
			<circle style="fill:#7689D6;" cx="1838.104" cy="602.889" r="36.084"/>
			<path style="fill:#8A9EDD;" d="M1882.054,454.465c-75.003,2.435-57.246,87.474-58.897,137.548
				c-8.962,11.518,0.17,29.85,14.949,29.38c14.775,0.47,23.915-17.864,14.948-29.38v-78.651c0-15.991,13.01-29.001,29.001-29.001
				c29.61,1.562,30.24,27.468,29,50.58h29.896C1945.757,494.639,1926.835,455.21,1882.054,454.465z"/>
		</g>
		<g>
			<circle style="fill:#7689D6;" cx="1053.271" cy="602.889" r="36.084"/>
			<path style="fill:#8A9EDD;" d="M1097.22,454.465c-75.002,2.435-57.246,87.474-58.897,137.548
				c-8.962,11.518,0.169,29.85,14.949,29.38c14.775,0.47,23.914-17.864,14.948-29.38v-78.651c0-15.991,13.01-29.001,29-29.001
				c29.61,1.562,30.24,27.468,29,50.58h29.896C1160.923,494.638,1142.002,455.21,1097.22,454.465z"/>
		</g>
		<path style="fill:#EB5648;" d="M1141.311,1070.816c-29.618,0-54.812-23.58-55.015-51.492c-0.12-16.481,6.83-30.72,19.068-39.063
			c12.912-8.803,30.216-9.883,47.471-2.964c3.489,1.399,5.184,5.362,3.785,8.851c-1.398,3.49-5.36,5.185-8.851,3.785
			c-13.165-5.278-25.501-4.718-34.736,1.576c-8.427,5.745-13.21,15.847-13.124,27.715c0.15,20.587,19.11,37.979,41.402,37.979
			c24.013,0,39.498-14.382,41.423-38.471c1.146-14.331-3.918-28.685-13.545-38.398c-9.209-9.291-21.794-13.654-36.388-12.619
			c-3.758,0.271-7.005-2.558-7.271-6.308c-0.266-3.75,2.558-7.005,6.308-7.271c23.592-1.681,38.592,8.111,47.021,16.615
			c12.381,12.492,18.903,30.834,17.446,49.065c-1.249,15.624-7.201,28.645-17.212,37.655
			C1169.393,1066.202,1156.328,1070.816,1141.311,1070.816z"/>
		<path style="fill:#EB5648;" d="M1830.665,896.358c-1.913,0-3.75-0.807-5.047-2.241l-40.643-44.938
			c-2.522-2.788-2.306-7.093,0.482-9.614c2.785-2.521,7.091-2.307,9.613,0.483l34.511,38.158l56.333-92.979
			c1.947-3.214,6.132-4.243,9.349-2.294c3.215,1.948,4.242,6.134,2.294,9.349l-61.07,100.798c-1.114,1.839-3.032,3.044-5.174,3.248
			C1831.097,896.348,1830.881,896.358,1830.665,896.358z"/>
		<path id="_x32_2_1_" style="fill:#8A9EDD;" d="M1721.048,1022.177l-0.379-21.516l-12.353,0.217
			c-1.04-3.821-2.583-7.432-4.554-10.761l8.671-8.982l-15.482-14.946l-8.345,8.644c-3.854-2.328-8.09-4.079-12.586-5.134
			l-0.224-12.705l-21.516,0.379l0.224,12.705c-4.14,1.126-8.033,2.845-11.587,5.056l-8.132-7.851l-14.946,15.482l8.132,7.851
			c-2.085,3.63-3.666,7.581-4.646,11.758l-12.353,0.217l0.379,21.516l12.353-0.217c1.213,4.457,3.112,8.628,5.574,12.398
			l-8.345,8.644l15.482,14.946l8.671-8.982c3.396,1.852,7.059,3.268,10.914,4.172l0.224,12.705l21.516-0.379l-0.224-12.705
			c4.14-1.126,8.033-2.845,11.587-5.056l9.478,9.15l14.946-15.482l-9.478-9.15c2.085-3.63,3.666-7.581,4.646-11.758
			L1721.048,1022.177z M1667.64,1031.977c-25.667,1.979-28.826-36.914-3.258-39.186
			C1690.048,990.812,1693.207,1029.705,1667.64,1031.977z"/>
		<path style="fill:#EB5648;" d="M1141.4,1192.423H966.53c-3.759,0-6.807-3.048-6.807-6.807s3.047-6.807,6.807-6.807h174.87
			c3.759,0,6.807,3.048,6.807,6.807S1145.159,1192.423,1141.4,1192.423z"/>
		<path style="fill:#8A9EDD;" d="M1879.073,1135.886h-81.229c-1.448,0-2.621-1.173-2.621-2.621s1.173-2.621,2.621-2.621h81.229
			c1.448,0,2.621,1.173,2.621,2.621S1880.521,1135.886,1879.073,1135.886z"/>
		<path style="fill:#8A9EDD;" d="M1879.073,1153.276h-81.229c-1.448,0-2.621-1.173-2.621-2.621s1.173-2.621,2.621-2.621h81.229
			c1.448,0,2.621,1.173,2.621,2.621S1880.521,1153.276,1879.073,1153.276z"/>
		<path style="fill:#8A9EDD;" d="M1822.112,1170.668h-24.268c-1.448,0-2.621-1.173-2.621-2.621s1.173-2.621,2.621-2.621h24.268
			c1.448,0,2.621,1.173,2.621,2.621S1823.561,1170.668,1822.112,1170.668z"/>
	</g>
	<g id="_x35_">
		<path style="fill:#F99370;" d="M1798.731,1189.174c0,0-3.53-1.689-3.971-7.05l12.042-7.011
			C1806.802,1175.113,1803.062,1185.812,1798.731,1189.174z"/>
		<path style="fill:#F99370;" d="M1691.632,1285.716l1.113-0.165l1.252-0.204l2.551-0.438l5.168-0.923
			c3.455-0.647,6.907-1.359,10.348-2.103c6.893-1.451,13.716-3.119,20.371-5.031c6.639-1.915,13.191-3.977,19.254-6.474
			c3.031-1.24,5.954-2.567,8.667-3.989l1.985-1.084l1.875-1.117l0.7-0.412c0.216-0.109,0.433-0.28,0.656-0.418
			c0.443-0.299,0.902-0.625,1.363-1.013c1.859-1.491,3.781-3.585,5.603-5.974c1.824-2.4,3.564-5.104,5.19-7.979
			c3.254-5.763,6.09-12.149,8.685-18.731c2.578-6.599,4.824-13.448,6.867-20.4c1.037-3.474,2.007-6.98,2.917-10.505l1.316-5.297
			c0.428-1.748,0.851-3.576,1.218-5.233l0.041-0.184c0.796-3.593,4.354-5.861,7.947-5.066c3.131,0.693,5.254,3.487,5.223,6.571
			c-0.039,3.99-0.181,7.731-0.417,11.58c-0.23,3.824-0.525,7.646-0.898,11.474c-0.769,7.651-1.87,15.307-3.367,23.011
			c-1.496,7.711-3.47,15.44-6.316,23.246c-1.426,3.904-3.085,7.831-5.141,11.776c-2.072,3.94-4.517,7.918-7.802,11.804
			c-0.808,0.971-1.693,1.933-2.629,2.879c-0.479,0.471-0.932,0.947-1.452,1.407l-0.764,0.692c-0.261,0.237-0.517,0.464-0.719,0.629
			l-2.623,2.181l-2.642,2.031c-3.533,2.616-7.101,4.933-10.688,7.083c-3.587,2.154-7.191,4.112-10.809,5.95
			c-3.621,1.83-7.244,3.598-10.905,5.176c-7.311,3.201-14.662,6.068-22.072,8.691c-3.71,1.296-7.44,2.511-11.195,3.685l-5.67,1.712
			l-2.885,0.808l-1.471,0.398l-1.614,0.415l-0.062,0.016c-11.059,2.842-22.327-3.818-25.17-14.877s3.818-22.327,14.877-25.17
			C1690.208,1285.964,1690.933,1285.821,1691.632,1285.716z"/>
		<path style="fill:#F99370;" d="M1647.035,1325.774l-1.928,2.052l-1.861,1.937l-3.752,3.781c-2.511,2.498-5.031,4.974-7.598,7.411
			c-5.157,4.849-10.417,9.607-15.844,14.26c-5.446,4.64-11.104,9.115-17.066,13.451c-2.99,2.162-6.069,4.279-9.302,6.329
			c-3.242,2.054-6.632,4.024-10.414,5.835c-1.89,0.907-3.873,1.78-6.041,2.58c-0.557,0.197-1.081,0.397-1.666,0.583l-0.865,0.278
			l-0.431,0.136l-0.366,0.097l-2.924,0.766c-0.966,0.268-1.957,0.473-2.947,0.674c-0.99,0.199-1.97,0.419-2.963,0.591
			c-2.002,0.302-3.98,0.649-5.996,0.812c-8.014,0.844-16.14,0.426-23.845-1.237c-7.714-1.633-15.037-4.335-21.725-7.937
			c-3.342-1.81-6.534-3.827-9.581-6.025c-1.518-1.112-3.008-2.253-4.452-3.47c-0.72-0.615-1.434-1.238-2.141-1.889l-1.064-1
			l-1.166-1.146c-2.605-2.56-2.642-6.748-0.081-9.354c2.168-2.206,5.501-2.57,8.054-1.077l0.818,0.48l1.757,1.028
			c0.65,0.371,1.322,0.732,1.998,1.086c1.356,0.707,2.744,1.377,4.146,2.003c2.817,1.239,5.699,2.3,8.61,3.154
			c5.813,1.734,11.723,2.672,17.496,2.724c2.886,0.05,5.74-0.16,8.536-0.555c2.798-0.369,5.546-0.931,8.224-1.738
			c1.346-0.348,2.66-0.861,3.975-1.298c0.654-0.241,1.298-0.526,1.945-0.781c0.647-0.257,1.292-0.512,1.923-0.828l1.898-0.886
			l0.237-0.109l0.162-0.097l0.321-0.189c0.209-0.117,0.454-0.282,0.679-0.416c0.935-0.588,1.964-1.298,3.019-2.085
			c4.246-3.202,8.843-7.357,13.21-11.805c4.407-4.456,8.689-9.267,12.932-14.16c4.253-4.89,8.415-9.936,12.484-15.07
			c2.044-2.558,4.086-5.12,6.084-7.707l2.972-3.881l1.468-1.924l1.37-1.834l0.062-0.082c6.833-9.152,19.791-11.031,28.943-4.198
			c9.152,6.833,11.031,19.791,4.198,28.943C1648.067,1324.612,1647.557,1325.217,1647.035,1325.774z"/>
		<path style="fill:#1D3F70;" d="M1809.98,1267.55c-5.11,17.79-24.42,38.04-44.84,50.02c-18.35,10.77-39.86,18.51-58.74,22.06
			l-2.7-6.57l-20.67-50.29c0,0,52.56-8.26,73.08-22.78c12.6-8.92,31.34-41.55,39.38-61.5c0.68-1.7,1.29-3.31,1.81-4.81
			c0,0,5.62,3.21,14.55,0.26c0,0,0.37,1.86,0.84,5.12C1814.42,1210.87,1817.58,1241.07,1809.98,1267.55z"/>
		<path style="fill:#1D3F70;" d="M1642.82,1283.58l-11.64,78.05c-3.95,4.13-8.91,8.18-14.56,11.98
			c-14.46,9.7-33.48,17.69-51.81,20.73c-0.01,0-0.02,0.01-0.03,0.01c-7.07,1.17-14.03,1.61-20.59,1.13
			c-22.8-1.67-40.27-17.16-47.49-24.69c-2.35-2.46-3.62-4.07-3.62-4.07c6.96-3.48,8.3-10.98,8.3-10.98c1.76,0.74,3.5,1.4,5.21,1.98
			c55.03,18.84,88.95-37.33,103.75-54.99C1625.6,1284.53,1642.82,1283.58,1642.82,1283.58z"/>
		<path style="fill:#163356;" d="M1616.62,1373.61c-14.46,9.7-33.48,17.69-51.81,20.73c37.94-11.6,47.93-46.49,47.93-46.49
			L1616.62,1373.61z"/>
		<path style="fill:#163356;" d="M1765.14,1317.57c-18.35,10.77-39.86,18.51-58.74,22.06l-2.7-6.57l7.54-8.73
			C1711.24,1324.33,1732.64,1329.11,1765.14,1317.57z"/>
		<path style="fill:#F99370;" d="M1616.418,1750.349c-1.345,2.595,30.723,0.631,31.163,1.242c3.197-0.845,0.129-9.458-0.929-11.124
			c-6.688-8.867,1.424-49.483,1.17-59.863h-30.557c-0.324,10.319,7.313,51.101,0.912,59.844
			C1616.359,1743.624,1616.417,1746.249,1616.418,1750.349z"/>
		<path style="fill:#F99370;" d="M1692.843,1750.349c-1.345,2.595,30.723,0.631,31.163,1.242c3.197-0.845,0.129-9.458-0.929-11.124
			c-6.688-8.867,1.424-49.483,1.17-59.863h-30.557c-0.325,10.319,7.313,51.101,0.912,59.844
			C1692.784,1743.624,1692.843,1746.249,1692.843,1750.349z"/>
		<path style="fill:#1D3F70;" d="M1725.976,1752.691c0,0-4.895,1.708-15.63,1.704c-12.021-0.005-17.447-1.704-17.447-1.704
			s-0.122-1.228-0.127-3.125c-0.005-3.982,0.532-10.9,3.92-15.583c0,0,12.42-4.203,24.21,0c0,0,4.777,3.977,5.078,16.054
			C1726.004,1750.879,1726,1751.764,1725.976,1752.691z"/>
		<path style="fill:#103663;" d="M1725.976,1752.691c0,0-4.895,1.708-15.63,1.704c-12.021-0.005-17.447-1.704-17.447-1.704
			s-0.122-1.228-0.127-3.125c5.499,1.243,16.612,2.415,33.209,0.471C1726.004,1750.879,1726,1751.764,1725.976,1752.691z"/>
		<path style="fill:#1D3F70;" d="M1649.551,1752.691c0,0-4.895,1.708-15.63,1.704c-12.02-0.005-17.447-1.704-17.447-1.704
			s-0.122-1.228-0.127-3.125c-0.005-3.982,0.532-10.9,3.92-15.583c0,0,12.419-4.203,24.21,0c0,0,4.777,3.977,5.078,16.054
			C1649.579,1750.879,1649.574,1751.764,1649.551,1752.691z"/>
		<path style="fill:#3A72AA;" d="M1730.698,1711.344c-0.498,5.03-0.811,7.797-0.811,7.797c-21.107,12.741-41.652,1.935-41.652,1.935
			c-5.288-70.32-20.331-206.217-20.268-205.492c-4.62,67.492-12.113,152.96-12.94,207.092c-27.076,10.116-44.953-1.601-44.953-1.601
			c-22.397-152.325-7.176-295.145-6.922-289.258c48.346,10.934,121.37-2.547,121.37-2.547
			C1748.647,1512.368,1734.426,1674.067,1730.698,1711.344z"/>
		<rect x="1653.368" y="1262.622" style="fill:#F99370;" width="20.131" height="23.767"/>
		<path style="fill:#1D3F70;" d="M1735.585,1451.957c-17.408,11.724-100.463,19.706-139.873,0.96
			c-0.004-0.08,19.563-144.746,33.478-164.274c16.994-7.779,49.729-9.974,66.97-1.109
			C1714.525,1303.158,1735.527,1453.339,1735.585,1451.957z"/>
		<path style="fill:#103663;" d="M1673.769,1281.878c-14.809,4.882-20.691,0.013-20.691,0.013l0.057-0.013l0.233-6.165
			c0,0,5.964,3.372,20.131,0L1673.769,1281.878z"/>
		<path style="fill:#F99370;" d="M1653.141,1271.978c17.328,6.935,33.334,2.828,41.992-6.087
			c14.066-14.319-1.485-31.334-1.969-46.55c-0.33-4.103-0.178-7.048-0.178-7.048
			C1634.285,1218.861,1650.04,1271.724,1653.141,1271.978z"/>
		<path style="fill:#F99370;" d="M1652.168,1269.846v13.334c0,0,6.39,10.744,22.563-0.123v-20.781L1652.168,1269.846z"/>
		<path style="fill:#E57D61;" d="M1663.737,1267.55c3.041-0.381,14.993-2.265,16.025-8.53c1.03-6.27,2.312-8.818,2.312-8.818
			l6.162-10.445c-1.516-9.605,4.729-20.084,4.926-20.407c0.003-0.008,0.003-0.008,0.003-0.008c-0.33-4.103-0.178-7.048-0.178-7.048
			c-1.45,0.236-2.856,0.493-4.22,0.771l-9.851,6.575l-11.002,11.056C1667.913,1230.695,1660.702,1267.928,1663.737,1267.55z"/>
		<path style="fill:#662948;" d="M1685.512,1236.407c0,0,0.647-13.558,7.451-21.11c14.568-16.171-0.98-23.333-11.726-24.893
			c-10.746-1.56-49.149,10-43.953,28.665c0,0-13.418,4.884-0.457,34.904c4.519,10.466,15.34,15.873,15.34,15.873
			s5.017-1.653,11.572-2.295c4.722-0.463,12.122-3.946,12.802-8.641C1677.714,1250.817,1680.251,1239.923,1685.512,1236.407z"/>
		<path style="fill:#F99370;" d="M1678.266,1244.204c1.663,4.838,6.17,7.676,10.068,6.337c3.898-1.338,5.71-6.346,4.047-11.184
			c-1.662-4.839-6.17-7.676-10.068-6.338C1678.416,1234.358,1676.604,1239.365,1678.266,1244.204z"/>
		<path style="fill:#C16256;" d="M1686.949,1236.444c-0.162-0.041-4.007-1.002-5.832,1.163c-0.465,0.55-0.734,1.251-0.832,2.079
			c0,0.002,0,0.004-0.001,0.005c-0.009,0.077-0.027,0.148-0.033,0.228c0,0.001-0.001,0.003-0.001,0.004c0,0,0.001,0.001,0,0.001
			c-0.111,1.533,0.365,3.504,1.431,5.901c0.12,0.267,0.413,0.405,0.69,0.337c0.033-0.008,0.066-0.02,0.1-0.034
			c0.301-0.134,0.438-0.489,0.304-0.79c-0.866-1.943-1.304-3.556-1.335-4.811c3.496,0.188,5.687,3.804,5.708,3.844
			c0.137,0.235,0.409,0.342,0.661,0.28c0.053-0.013,0.106-0.036,0.157-0.065c0.286-0.164,0.383-0.53,0.218-0.816
			c-0.107-0.181-2.502-4.229-6.61-4.472c0.1-0.354,0.242-0.668,0.453-0.917c1.341-1.591,4.593-0.785,4.623-0.777
			c0.324,0.08,0.645-0.114,0.728-0.433C1687.461,1236.851,1687.269,1236.527,1686.949,1236.444z"/>
		<path style="fill:#103663;" d="M1649.551,1752.691c0,0-4.895,1.708-15.63,1.704c-12.02-0.005-17.447-1.704-17.447-1.704
			s-0.122-1.228-0.127-3.125c5.499,1.243,16.612,2.415,33.209,0.471C1649.579,1750.879,1649.574,1751.764,1649.551,1752.691z"/>
		<path style="fill:#F4D4BE;" d="M1652.168,1279.241v-1.843c0,0,8.656,3.765,22.563-0.481l0,2.323
			C1674.731,1279.241,1661.523,1284.769,1652.168,1279.241z"/>
		<path style="fill:#23659B;" d="M1730.698,1711.344c-0.498,5.03-0.811,7.797-0.811,7.797c-21.107,12.741-41.652,1.935-41.652,1.935
			c-0.22-2.91-0.455-5.919-0.704-9.006C1687.531,1712.069,1703.68,1719.902,1730.698,1711.344z"/>
		<path style="fill:#23659B;" d="M1649.671,1714.702c3.883-62.37,4.007-160.613,18.297-199.118
			c-4.621,67.5-12.113,152.951-12.94,207.092c-27.075,10.116-44.953-1.601-44.953-1.601c-0.377-2.753-0.747-5.485-1.103-8.209
			C1608.972,1712.866,1628.782,1720.455,1649.671,1714.702z"/>
		<path style="fill:#23659B;" d="M1667.968,1515.584c0,0-8.618-10.959-9.198-28.396c0,0-3.099,18.524,6.879,35.417
			L1667.968,1515.584z"/>
		<path style="fill:#163356;" d="M1687.254,1283.635v0.007c0,0-0.164,0.171-0.498,0.469c-1.017,0.911-3.593,3.002-7.712,4.916
			c-3.955,1.835-9.333,3.507-16.12,3.813c-6.26,0.284-11.276-0.925-15.074-2.511c-4.261-1.771-6.993-4.019-8.217-5.186
			c-0.505-0.469-0.754-0.761-0.754-0.761c8.224-1.814,13.289-2.006,13.289-2.006c5.584-0.811,16.924-0.349,22.565-0.235
			c0.242,0.007,0.477,0.014,0.719,0.028c0.811,0.029,1.622,0.093,2.433,0.178c0.021,0,0.05,0,0.078,0.007
			C1680.125,1282.554,1683.298,1282.931,1687.254,1283.635z"/>
		<path style="fill:#1D3F70;" d="M1652.168,1279.241c0,0-6.464,0.833-9.351,4.342c0,0,7.185,6.393,20.174,5.912
			c12.989-0.481,20.038-6.729,20.038-6.729s-3.459-2.724-8.299-3.525C1674.731,1279.241,1661.202,1284.368,1652.168,1279.241z"/>
		<path style="fill:#1D3F70;" d="M1775.491,1189.534c-1.053,0-2.046-0.639-2.447-1.68c-0.521-1.351,0.153-2.868,1.504-3.389
			l48.964-18.865c1.352-0.521,2.868,0.153,3.389,1.504s-0.153,2.868-1.504,3.389l-48.964,18.865
			C1776.123,1189.478,1775.804,1189.534,1775.491,1189.534z"/>
		<path style="fill:#F99370;" d="M1811.849,1189.174c0,0,2.588-13.106-3.745-17.646l-10.259,3.979c0,0,3.786,3.176,0.886,13.667
			C1798.731,1189.174,1801.631,1193.437,1811.849,1189.174z"/>
		<path style="fill:#F99370;" d="M1800.405,1176.847c1.157,2.297,0.841,5.521-0.293,6.092s-1.044-1.891-2.202-4.188
			s-2.677-2.345-2.677-2.345C1796.242,1172.81,1799.248,1174.55,1800.405,1176.847z"/>
		<path style="fill:#F99370;" d="M1809.689,1173.736c1.157,2.297,1.176,4.622,0.042,5.194c-1.134,0.571-2.991-0.828-4.149-3.125
			c-1.157-2.297-1.177-4.622-0.042-5.194C1806.674,1170.04,1808.531,1171.439,1809.689,1173.736z"/>
		<path style="fill:#F99370;" d="M1806.387,1175.033c1.157,2.297,1.177,4.622,0.042,5.194c-1.134,0.571-2.991-0.828-4.149-3.125
			c-1.157-2.297-1.176-4.622-0.042-5.194C1803.372,1171.337,1805.23,1172.736,1806.387,1175.033z"/>
		<path style="fill:#F99370;" d="M1803.145,1176.212c1.157,2.297,1.176,4.622,0.042,5.194c-1.134,0.571-2.991-0.828-4.149-3.125
			s-1.176-4.622-0.042-5.194C1800.13,1172.516,1801.987,1173.915,1803.145,1176.212z"/>
		<path style="fill:#F99370;" d="M1489.55,1334.972c-2.547,1.222,1.296,6.716,0.897,9.262c-4.048-2.053-7.533-5.292-7.564-5.288
			c-3.355-4.51-6.46-9.194-9.355-14.02c-7.502-4.097,3.919,14.129,4.713,16.12c-0.021,0.018-0.042,0.038-0.063,0.056
			c-4.423-3.887-8.64-8.023-12.482-12.487c-8.631-2.501,8.22,14.558,9.62,16.293c-0.006,0.013-0.012,0.025-0.019,0.037
			c-4.778-2.951-9.199-6.489-13.186-10.451c-8.92-1.747,9.542,14.254,11.453,15.458c-0.005,0.022-0.01,0.043-0.015,0.065
			c-4.091-1.772-7.955-4.065-11.67-6.536c-8.543-0.435,9.398,11.136,11.267,12.05c0.973,1.276,8.078,5.473,17.643,8.539
			c3.135,1.005,8.047-6.783,7.403-9.951c-0.604-2.97-2.482-6.653-3.123-8.002C1494.249,1343.287,1492.949,1334.995,1489.55,1334.972
			z"/>
		<path style="fill:#163356;" d="M1812.69,1199.06c-9.11,2.48-17.2-0.57-17.2-0.57c0.68-1.7,1.29-3.31,1.81-4.81
			c0,0,5.62,3.21,14.55,0.26C1811.85,1193.94,1812.22,1195.8,1812.69,1199.06z"/>
		<path style="fill:#163356;" d="M1506.59,1357.72c0,0-1.2,9.41-9.89,13.07c-2.35-2.46-3.62-4.07-3.62-4.07
			c6.96-3.48,8.3-10.98,8.3-10.98C1503.14,1356.48,1504.88,1357.14,1506.59,1357.72z"/>
	</g>
	<g id="_x34_">
		<path style="fill:#F99370;" d="M978.019,1840.147l-0.881-0.46c0,0.617-0.763,2.758-1.379,2.758l-26.044,0.536
			c-0.617,0-0.996-1.161-0.996-1.777l-2.221-0.636c0-3.9,0.321-5.314,2.044-8.332c6.332-8.416-1.227-46.053-1.008-55.886
			c-1.562-2.689,27.426-0.579,27.831-1.214c0.651,0.001,1.164,0.556,1.113,1.205l-3.411,43.006
			C971.535,1827.514,977.801,1832.45,978.019,1840.147z"/>
		<path style="fill:#F99370;" d="M1085.865,1843.895h-51.877c-4.528-0.182-4.494-4.801-3.659-8.382
			c2.856-12.91-2.193-42.554-3.129-55.831c-0.249-2.431,1.659-4.544,4.103-4.544c38.28-0.389,25.791-3.454,22.824,37.839
			c-2.263,14.423,14.942,17.173,24.751,18.767C1085.336,1832.211,1096.136,1841.026,1085.865,1843.895z"/>
		<path style="fill:#103663;" d="M1028.354,1838.514c0.14,2.544,1.401,5.445,4.348,5.382c0,0,53.811,0,53.811,0
			c12.692-4.708-6.325-21.546-31.17-21.446C1037.677,1827.297,1027.755,1813.527,1028.354,1838.514z"/>
		<path style="fill:#103663;" d="M950.624,1843.896h22.999c11.208-1.53,3.133-23.035-11.496-21.481
			C947.456,1820.558,939.424,1842.386,950.624,1843.896z"/>
		<path style="fill:#E8C0A6;" d="M1073.684,1836.613c0.452,0,0.88-0.269,1.06-0.715c2.068-5.103,5.797-6.664,5.954-6.728
			c2.908-4.59-5.543-1.32-8.074,5.87C1072.311,1835.77,1072.894,1836.628,1073.684,1836.613z"/>
		<path style="fill:#E8C0A6;" d="M1064.799,1835.541c0.488,0,0.94-0.315,1.093-0.806c1.828-5.91,6.973-8.641,7.026-8.667
			c2.637-5.333-7.188,0.376-9.21,7.991C1063.47,1834.778,1064.045,1835.552,1064.799,1835.541z"/>
		<path style="fill:#E8C0A6;" d="M1054.687,1834.298c0.473,0,0.915-0.296,1.08-0.768c2.135-6.137,7.066-9.479,7.116-9.512
			C1065.8,1816.139,1049.698,1832.191,1054.687,1834.298z"/>
		<path style="fill:#E8C0A6;" d="M953.878,1829.253c6.389-3.875,16.189-0.383,16.226-0.102c6.671-1.437-9.104-7.069-16.805-2.029
			C952.296,1827.666,952.757,1829.295,953.878,1829.253z"/>
		<path style="fill:#0F2E54;" d="M1090.277,1838.514h-61.924c0.228,1.89,0.75,3.726,1.698,5.382h56.46
			C1089.293,1843.9,1091.265,1841.112,1090.277,1838.514z"/>
		<path style="fill:#0F2E54;" d="M950.624,1843.896h22.999c2.926,0.003,5.281-2.462,5.1-5.382h-33.2
			C945.346,1841.433,947.698,1843.9,950.624,1843.896z"/>
		<path style="fill:#F99370;" d="M1203.426,1466.674c34.266,18.516,34.08-27.496-0.765-16.872
			C1202.66,1449.802,1200.949,1458.983,1203.426,1466.674z"/>
		<path style="fill:#1D3F70;" d="M1107.439,1841.45c4.17,0,8.039-2.679,9.36-6.867l19.533-61.939h114.122
			c0,0-17.671,56.032-17.67,56.032c-4.026,12.166,15.061,17.988,18.727,5.907c58.633-185.927,123.432-391.386,181.76-576.35
			c4.044-12.21-15.119-17.95-18.727-5.908l-17.601,55.813H1282.82c0,0,15.739-49.906,15.738-49.905
			c4.037-12.172-15.111-18.001-18.727-5.908c-58.384,185.129-123.191,390.638-181.76,576.35
			C1095.999,1834.868,1100.947,1841.546,1107.439,1841.45z M1286.769,1657.493h-114.122l21.351-67.703h114.122L1286.769,1657.493z
			 M1249.085,1415.113h114.122l-21.351,67.703h-114.122L1249.085,1415.113z M1335.663,1502.452l-21.351,67.703h-114.122
			l21.351-67.703H1335.663z M1390.75,1327.775l-21.351,67.702h-114.122l21.351-67.702H1390.75z M1142.525,1753.009l23.93-75.88
			h114.122l-24.027,76.187c-0.768-0.193-1.567-0.306-2.394-0.306H1142.525z"/>
		<path style="fill:#C92828;" d="M1084.841,1325.256c0,0,10.411-13.16,0.177-24.742l-11.326,1.719L1084.841,1325.256z"/>
		<path style="fill:#1D3F70;" d="M1069.812,1445.179c32.272,49.809,97.682,48.386,133.61,21.497l-0.761-16.87
			c-82.869,6.421-84.01-53.191-137.347-77.309C1065.315,1372.498,1069.248,1443.941,1069.812,1445.179z"/>
		<path style="fill:#3A72AA;" d="M942.524,1793.033c0.087,3.606,0.185,7.245,0.304,10.939c0,0,19.509,12.872,38.747,3.878
			c7.527-40.98,23.578-128.764,39.779-234.621c0.207-3.113,8.391,141.929-1.673,237.978c0,0,21.638,5.583,41.158-1.738
			c13.716-49.004,35.162-137.929,25.364-323.977c0,0-58.604-3.302-101.229-24.441
			C948.239,1503.66,938.088,1721.909,942.524,1793.033z"/>
		<path style="fill:#F99370;" d="M1060.254,1370.595c2.43-12.846,8.328-35.956-1.334-41.654c-6.804-3.726-16.396,0.988-15.545,9.506
			c0.725-0.302-1.091,23.273-3.625,29.475C1019.716,1370.43,1073.902,1398.908,1060.254,1370.595z"/>
		<path style="fill:#E57D61;" d="M1043.359,1337.358c-0.009,0.361-0.007,0.73,0.017,1.09c0.525-0.233-0.311,12.802-1.867,22.103
			c8.068,5.446,17.883,5.134,19.728,5.068c2.94-13.491,6.932-30.399-2.318-36.677
			C1052.59,1324.875,1043.412,1329.722,1043.359,1337.358z"/>
		<path style="fill:#23659B;" d="M1048.532,1807.278c28.296-128.664,19.834-261.454,16.152-262.536
			C1062.798,1545.623,1070.917,1679.753,1048.532,1807.278z"/>
		<path style="fill:#23659B;" d="M962.931,1807.278c19.478-123.395,41.234-266.777,38.511-268.907
			C998.613,1538.767,976.497,1684.853,962.931,1807.278z"/>
		<path style="fill:#F99370;" d="M1036.478,1318.202c-3.062,8.838-5.252,19.478-1.725,28.313l0.01,0.003
			c0.144,0.359,0.295,0.698,0.466,1.044c-0.003,0.01,0.007,0.013,0.003,0.023c6.004,11.392,19.525,17.63,32.917,14.989l0.01,0.003
			c11.04-2.912,18.343-10.899,18.307-20.101c-0.274-5.562-2.945-11.76-1.624-17.225
			C1092.857,1292.111,1048.292,1283.997,1036.478,1318.202z"/>
		<path style="fill:#C16256;" d="M1070.202,1329.889c1.504-1.012-0.12-3.352-1.594-2.296
			C1067.103,1328.605,1068.728,1330.945,1070.202,1329.889z"/>
		<path style="fill:#C16256;" d="M1081.484,1333.718c1.505-1.013-0.12-3.352-1.594-2.296
			C1078.385,1332.434,1080.01,1334.774,1081.484,1333.718z"/>
		<path style="fill:#103663;" d="M1071.822,1448.59c8.674,12.439,26.204,24.631,42.907,31.73c-3.28-5.638-9.91-9.337-12.405-22.29
			c-4.731-24.557-16.338-48.447-16.338-48.447L1071.822,1448.59z"/>
		<path style="fill:#E57D61;" d="M1036.478,1318.202c-3.062,8.838-5.252,19.478-1.725,28.313l0.01,0.003
			c0.144,0.359,0.295,0.698,0.466,1.044c-2.229-16.246,0.606-18.478,7.011-27.085c12.691-3.808,15.695-13.859,25.255-10.574
			c9.563,3.275,17.816,4.625,17.816,4.625C1082.324,1288.027,1045.754,1290.378,1036.478,1318.202z"/>
		<path style="fill:#C16256;" d="M1072.876,1342.776c2.199,0.681,5.338,0.628,3.751-2.444c-1.646-2.51-0.762-8.25-0.753-8.307
			c-1.529-2.832-2.016,6.069-0.131,8.887c1.223,2.099-3.161,1.134-4.432-0.262
			C1068.929,1340.243,1071.811,1342.734,1072.876,1342.776z"/>
		<path style="fill:#1D3F70;" d="M961.643,1523.567c28.372,21.467,97.957,27.875,126.287,17.619
			c9.549-4.044,10.885-36.208,9.777-67.796c-1.698-42.107-11.961-72.547-31.393-100.685c-0.239-0.098-3.932-1.738-6.05-2.097
			c0.094,3.846-0.785,14.964-20.509-2.683c-0.087,0.076-5.889-0.703-7.702,0.076c-1.89,1.434-23.246,15.327-23.789,17.587
			c-1.608,6.757-8.82,23.474-16.707,42.962c-9.116,22.788-21.322,45.96-25.335,67.3
			C964.659,1504.724,956.016,1515.203,961.643,1523.567z"/>
		<path style="fill:#C92828;" d="M1039.001,1305.735c11.599-24.32,27.011-18.243,27.011-18.243l-0.001,0.001
			c19.576-13.39,46.594,5.804,27.231,21.75c-11.318,10.028-24.785-9.994-40.91,2.303c-6.481,4.942-10.486,7.988-19.074,8.737
			C1033.258,1320.283,1034.966,1312.014,1039.001,1305.735z"/>
		<path style="fill:#F99370;" d="M1029.103,1319.531c-3.113,10.184,9.781,13.968,12.665,3.716
			C1044.881,1313.064,1031.986,1309.28,1029.103,1319.531z"/>
		<path style="fill:#C16256;" d="M1031.088,1323.054c0.299,0.102,0.629-0.085,0.689-0.398c0.639-3.192,1.684-5.063,3.021-5.41
			c2.598-0.5,3.389,2.474,4.479,1.864c0.696-0.909-2.048-3.281-4.741-2.889C1033.185,1316.348,1030.169,1320.078,1031.088,1323.054z
			"/>
		<path style="fill:#C16256;" d="M1035.786,1324.743c1.557,0.926,0.676-7.624-3.06-7.291c-0.154,0.248-0.08,0.575,0.168,0.73
			C1036.38,1320.541,1034.8,1324.176,1035.786,1324.743z"/>
		<path style="fill:#C16256;" d="M1070.118,1349.863c1.74,0.783,3.675,0.412,2.183-0.585c-0.223-0.015-5.544-0.422-9.063-6.919
			c-0.138-0.257-0.46-0.353-0.717-0.213C1062.742,1346.475,1068.657,1349.338,1070.118,1349.863z"/>
		<path style="fill:#F99370;" d="M1216.11,1455.429c4.602-2.967,10.77-1.572,14.879,1.793c1.833,1.298,4.027-1.388,2.417-2.924
			c-4.943-5.885-13.593-8.488-20.83-5.43C1208.29,1451.098,1211.884,1457.784,1216.11,1455.429z"/>
		<path style="fill:#F99370;" d="M1228.488,1475.859c6.61,1.804,7.944-6.89,0.788-4.66l0.116,0.027
			C1225.801,1470.308,1225.104,1475.081,1228.488,1475.859z"/>
		<path style="fill:#F99370;" d="M1230.833,1471.881c7.825,0.636,5.895-8.726,0.259-4.893c0.142-0.051-0.648,0.112-0.513,0.07
			C1226.837,1466.874,1227.545,1471.805,1230.833,1471.881z"/>
		<path style="fill:#F99370;" d="M1233.422,1467.791l2.551-0.579c3.534-0.936,0.979-5.565-1.941-4.698c0,0-2.551,0.579-2.551,0.579
			C1227.947,1464.028,1230.502,1468.658,1233.422,1467.791z"/>
		<path style="fill:#F99370;" d="M1235.113,1463.888l2.551-0.579c3.534-0.936,0.979-5.565-1.941-4.698c0,0-2.551,0.579-2.551,0.579
			C1229.639,1460.125,1232.194,1464.755,1235.113,1463.888z"/>
		<path style="fill:#1D3F70;" d="M1070.364,1488.089c0,0,2.35-10.613-1.294-16.943c0,0-58.364-2.129-66.588-23.568
			c-8.835-23.031,32.101-35.614,29.862-79.441c-52.839,1.62-95.607,67.554-69.413,112.286
			C978.879,1507.655,1038.653,1499.669,1070.364,1488.089z"/>
		<path style="fill:#23659B;" d="M1019.681,1811.206c0,0,21.638,5.583,41.158-1.738c0,0,1.282-3.737,3.302-11.156
			c0,0-25.169,9.374-43.32,0C1020.474,1802.635,1020.094,1806.937,1019.681,1811.206z"/>
		<path style="fill:#23659B;" d="M942.524,1793.033c0.087,3.606,0.185,7.245,0.304,10.939c0,0,19.509,12.872,38.747,3.878
			c0,0,0.63-3.367,1.76-9.537C983.335,1798.312,962.62,1804.493,942.524,1793.033z"/>
		<path style="fill:#103663;" d="M1202.66,1449.802c0,0,1.8,8.785,0.765,16.872c0,0-2.587,2.868-6.771,4.069
			c0,0-4.688-10.88-2.608-20.495C1194.046,1450.248,1198.428,1448.877,1202.66,1449.802z"/>
		<path style="fill:#F99370;" d="M1074.544,1471.576c0,0,11.133-2.454,14.948-3.123s13.265,3.592,15.327,5.89
			c2.062,2.298-1.205,7.898-2.677,9.504c-1.473,1.606-4.548-0.268-3.146-2.945c0.965-1.842,1.874-3.461,1.874-3.461
			s-5.154,0.488-7.965,0c0,0-8.259,9.24-18.151,9.128C1074.753,1486.568,1076.663,1478.715,1074.544,1471.576z"/>
		<path style="fill:#F99370;" d="M1074.753,1486.568c0,0,15.26,0.001,25.246-6.248c4.159-2.603,0-5.108,0-5.108l-11.313,0.535
			L1074.753,1486.568z"/>
		<path style="fill:#F99370;" d="M1074.544,1471.576l-5.474-0.43c0,0,3.228,5.166,1.294,16.943l4.389-1.52
			C1074.753,1486.568,1077.979,1479.429,1074.544,1471.576z"/>
		<path style="fill:#103663;" d="M1069.61,1473.351c-0.062,0-0.125-0.006-0.187-0.017c-6.841-1.23-11.54-1.93-20.901-3.321
			l-7.538-1.124c-14.416-2.158-22.334-5.126-32.587-12.216c-4.179-2.89-6.824-7.132-7.649-12.27
			c-0.936-5.826,0.676-12.347,4.206-17.016c5.733-7.584,14.665-19.926,14.754-20.049c0.339-0.47,0.995-0.576,1.464-0.235
			c0.469,0.34,0.574,0.995,0.235,1.464c-0.09,0.124-9.034,12.483-14.78,20.084c-3.197,4.23-4.656,10.138-3.808,15.419
			c0.511,3.18,2.1,7.647,6.771,10.878c10.073,6.965,17.481,9.737,31.706,11.866l7.536,1.123c9.382,1.396,14.091,2.096,20.963,3.332
			c0.57,0.103,0.949,0.647,0.847,1.218C1070.55,1472.994,1070.108,1473.351,1069.61,1473.351z"/>
		<path style="fill:#103663;" d="M1009.045,1500.141c-29.073,0-40.961-11.875-41.493-12.423c-0.403-0.416-0.394-1.079,0.022-1.482
			c0.415-0.404,1.078-0.394,1.482,0.021l0,0c0.136,0.139,13.985,13.87,47.811,11.509c34.158-2.381,54.286-12.301,54.485-12.401
			c0.516-0.259,1.147-0.051,1.407,0.468c0.26,0.517,0.051,1.146-0.466,1.407c-0.203,0.102-20.667,10.206-55.281,12.618
			C1014.225,1500.051,1011.569,1500.141,1009.045,1500.141z"/>
		<path style="fill:#3A72AA;" d="M1074.544,1475.751c0,0,1.736,4.637,0.21,10.817c0,0-2.366,1.546-4.389,1.52
			c0,0,0.512-7.434-0.755-12.029L1074.544,1475.751z"/>
		<path style="fill:#C16256;" d="M1074.699,1324.607c-0.075,0-0.152-0.017-0.225-0.051c-2.638-1.255-7.084-0.63-7.129-0.624
			c-0.285,0.044-0.552-0.157-0.594-0.443c-0.042-0.286,0.157-0.553,0.444-0.594c0.195-0.027,4.809-0.677,7.729,0.714
			c0.262,0.125,0.373,0.438,0.249,0.699C1075.083,1324.497,1074.896,1324.607,1074.699,1324.607z"/>
		<path style="fill:#C16256;" d="M1083.87,1329.265c-0.179,0-0.354-0.092-0.452-0.258c-1.104-1.863-3.674-2.957-3.7-2.968
			c-0.267-0.111-0.393-0.419-0.281-0.686c0.112-0.268,0.419-0.396,0.686-0.281c0.119,0.05,2.919,1.241,4.197,3.401
			c0.147,0.249,0.065,0.57-0.184,0.718C1084.052,1329.241,1083.96,1329.265,1083.87,1329.265z"/>
		<path style="fill:#F4D4BE;" d="M1029.877,1368.259c-0.132,9.309,26.169,21.975,27.523,21.987l2.863-8.47
			c3.675,0.907,6.911,6.052,6.911,6.052c10.593-10.092,0.632-18.891-6.911-17.225c0,0,0,0.006,0.006,0.012
			c0.147,0.601,0.934,13.844-20.518-2.691C1036.795,1365.645,1029.877,1368.259,1029.877,1368.259z"/>
		<path style="fill:#23659B;" d="M1077.533,1473.717c0,1.331-2.876,2.411-6.423,2.411s-6.423-1.079-6.423-2.411
			s2.876-2.411,6.423-2.411S1077.533,1472.385,1077.533,1473.717z"/>
		<rect x="1064.687" y="1472.668" style="fill:#23659B;" width="12.847" height="1.048"/>
		<path style="fill:#3A72AA;" d="M1077.533,1472.668c0,1.331-2.876,2.411-6.423,2.411s-6.423-1.079-6.423-2.411
			s2.876-2.411,6.423-2.411S1077.533,1471.337,1077.533,1472.668z"/>
		<path style="fill:#CFDDF9;" d="M1076.554,1472.513c0,0.912-2.437,1.651-5.444,1.651c-3.006,0-5.444-0.739-5.444-1.651
			s2.437-1.651,5.444-1.651C1074.116,1470.862,1076.554,1471.601,1076.554,1472.513z"/>
	</g>
	<g id="_x33_">
		<path style="fill:#F99370;" d="M1333.947,1308.148l-52.117-0.469c0.729-18.048,3.58-44.752,6.351-63.278l26.543,1.058
			l-10.044,37.335c-0.609,4.526,1.298,8.589,5.624,10.051c9.632,3.87,21.447,1.875,26.894,10.417
			C1338.28,1305.55,1336.476,1308.171,1333.947,1308.148z"/>
		<path style="fill:#EB5648;" d="M1280.305,1302.693c0.195,1.748,0.485,3.918,1.347,5.456l52.322-0.001
			c2.536,0.023,4.393-2.456,3.574-4.856c-1.93-5.608-8.73-13.782-32.755-15.256c0,0-8.199,2.36-21.621-0.194
			C1283.172,1287.844,1279.504,1295.606,1280.305,1302.693z"/>
		<path style="fill:#E8C0A6;" d="M1322.213,1301.314c0.414,0,0.807-0.245,0.976-0.651c1.953-4.697,5.411-6.108,5.557-6.167
			c2.758-4.209-5.127-1.268-7.509,5.356C1320.94,1300.527,1321.479,1301.328,1322.213,1301.314z"/>
		<path style="fill:#E8C0A6;" d="M1314.012,1300.249c0.447,0,0.863-0.287,1.007-0.735c1.739-5.445,6.516-7.924,6.564-7.948
			c2.291-4.891-6.563,0.258-8.576,7.305C1312.78,1299.537,1313.311,1300.26,1314.012,1300.249z"/>
		<path style="fill:#E8C0A6;" d="M1304.68,1299.017c0.433,0,0.84-0.269,0.994-0.701c2.024-5.652,6.608-8.699,6.654-8.728
			c1.704-5.112-6.284,0.997-8.642,8.016C1303.431,1298.276,1303.967,1299.029,1304.68,1299.017z"/>
		<path style="fill:#CE3932;" d="M1337.519,1303.208l-57.213-0.514c0.195,1.748,0.662,3.449,1.524,4.987l52.145,0.469
			C1336.546,1308.176,1338.411,1305.619,1337.519,1303.208z"/>
		<path style="fill:#F99370;" d="M1339.247,886.092c-64.277,31.995-81.384,106.539-40.163,164.56
			c5.817,9.748,18.264,1.31,12.468-8.146c-17.478-45.489-5.194-94.515,44.931-108.755c-0.006,0.034-0.174,0.093-0.229,0.116
			C1387.452,922.601,1370.526,875.11,1339.247,886.092z"/>
		<path style="fill:#1D3F70;" d="M1275.213,983.171c5.836,4.127,31.881,1.55,41.408-4.052l41.419-93.538
			C1318.378,877.306,1271.348,940.74,1275.213,983.171z"/>
		<path style="fill:#163356;" d="M1291.681,985.3c3.993-0.204,8.641-0.868,13.893-2.303l1.966-37.28
			C1307.54,945.717,1295.765,960.99,1291.681,985.3z"/>
		<path style="fill:#F99370;" d="M1353.426,932.609c68.336,39.346,133.784,32.234,162.934-47.778
			c2.691-10.194-10.511-13.335-14.409-3.978c-36.185,51.75-72.058,49.283-118.083,11.234c0.003-0.01-0.106-0.103,0.047-0.001
			C1357.318,872.265,1327.023,912.564,1353.426,932.609z"/>
		<path style="fill:#F99370;" d="M1392.821,1308.081l-51.359,0.068c-1.905-12.697,9.301-54.149,12.423-65.846l27.881,5.824
			l-14.067,33.636c0,0-6.502,8.86,2.083,11.26c9.525,3.239,19.71,2.099,26.186,8.801
			C1397.891,1304.402,1396.038,1308.077,1392.821,1308.081z"/>
		<path style="fill:#EB5648;" d="M1339.885,1303.179c0.213,1.746,0.698,3.442,1.576,4.971l52.147-0.069
			c2.536-0.003,4.367-2.501,3.524-4.892c-1.988-5.588-8.872-13.692-32.91-14.917c0,0-8.174,2.445-21.622,0.029
			C1342.599,1288.3,1339.011,1296.1,1339.885,1303.179z"/>
		<path style="fill:#E8C0A6;" d="M1381.765,1301.367c0.418,0,0.813-0.25,0.98-0.661c1.905-4.716,5.349-6.164,5.495-6.223
			c2.714-4.24-5.139-1.215-7.454,5.433C1380.496,1300.589,1381.035,1301.381,1381.765,1301.367z"/>
		<path style="fill:#E8C0A6;" d="M1373.553,1300.387c0.452,0,0.869-0.292,1.01-0.745c1.673-5.43,6.436-7.993,6.484-8.018
			c2.226-4.916-6.56,0.333-8.503,7.395C1372.326,1299.684,1372.858,1300.397,1373.553,1300.387z"/>
		<path style="fill:#E8C0A6;" d="M1364.209,1299.251c0.437,0,0.847-0.274,0.998-0.711c1.965-5.673,6.518-8.766,6.564-8.796
			c1.146-0.741-0.038-2.534-1.17-1.76c-0.211,0.14-5.183,3.495-7.391,9.864C1362.965,1298.518,1363.5,1299.263,1364.209,1299.251z"
			/>
		<path style="fill:#CE3932;" d="M1397.101,1303.103l-57.215,0.076c0.213,1.746,0.698,3.442,1.576,4.971l52.147-0.069
			C1396.179,1308.08,1398.017,1305.504,1397.101,1303.103z"/>
		<path style="fill:#163356;" d="M1275.213,983.171c-0.454,1.279,19.878,3.431,26.331,0.804l-3.704-4.856
			c0,0-11.547,2.01-22.54-2.053C1275.202,979.087,1275.181,981.129,1275.213,983.171z"/>
		<path style="fill:#1D3F70;" d="M1397.678,1041.597l-109.637-16.69c23.703-167.884,103.011-174.068,115.884-79.186
			C1407.73,969.805,1401.258,1027.585,1397.678,1041.597z"/>
		<path style="fill:#163356;" d="M1403.146,1003.898c1.378-28.802-11.456-56.61-11.456-56.61l12.23-1.567
			C1405.91,965.291,1404.884,986.447,1403.146,1003.898z"/>
		<path style="fill:#3A72AA;" d="M1276.739,1269.274c0,0,19.6,10.268,38.217,4.366c24.447-59.112,36.04-139.788,29.7-198.332
			c1.669-2.554,34.258,83.146-1.055,198.812c0,0,12.739,10.388,30.301,6.933c21.456-41.233,70.841-140.563,28.693-271.936
			c-13.896-5.422-93.736-13.119-110.478-4.99c0,0-18.065,33.227-9.74,78.114c11.084,59.761-0.096,149.007-4.222,177.748h-0.024
			C1277.291,1265.915,1276.739,1269.274,1276.739,1269.274z"/>
		<path style="fill:#23659B;" d="M1378.8,1272.141c-3,5.803-4.891,8.92-4.891,8.92c-17.575,3.451-30.318-6.931-30.318-6.931
			c0.82-2.899,1.608-5.758,2.358-8.596C1345.949,1265.533,1358.883,1276.142,1378.8,1272.141z"/>
		<path style="fill:#23659B;" d="M1292.323,999.249c0,0,45.725-14.43,110.597,6.843c0,0,2.707,4.681,1.484,8.482
			c0,0-69.446-14.295-115.011-4.476C1289.392,1010.098,1288.949,1004.475,1292.323,999.249z"/>
		<path style="fill:#1D3F70;" d="M1363.848,885.839c-6.509,57.358,42.64,97.108,104.643,61.682l0.001-0.009
			c3.748-2.585,5.623-4.544,5.623-4.544c0.925-17.434-11.502-26.413-11.502-26.413c-11.811,1.441-31.173,2.489-45.196-5.031
			C1388.334,895.274,1363.848,885.839,1363.848,885.839z"/>
		<path style="fill:#8E4A35;" d="M1376.043,795.541c-14.157-2.87-35.009,3.845-41.773,30.47
			c-5.478,21.563-26.73,18.12-42.589,44.005c-16.579,27.06-3.258,51.401,20.658,65.382c44.063,26.429,115.531-21.565,92.966-73.889
			C1395.763,838.871,1400.339,800.467,1376.043,795.541z"/>
		<path style="fill:#163356;" d="M1455.592,917.267c0,0,13.24,9.804,12.901,30.245c3.748-2.585,5.623-4.544,5.623-4.544
			c0.925-17.434-11.502-26.413-11.502-26.413S1459.876,916.98,1455.592,917.267z"/>
		<path style="fill:#23659B;" d="M1276.739,1269.274c0,0,19.6,10.268,38.217,4.366c-0.008-0.001,1.013-2.798,2.591-7.485
			c0.001,0.017-19.182,4.265-39.417-6.166C1277.291,1265.915,1276.739,1269.274,1276.739,1269.274z"/>
		<path style="fill:#23659B;" d="M1308.214,1269.658h8.133c23.577-56.696,34.472-138.675,28.309-194.23
			c0,0-10.004-5.686-11.635-20.776C1337.718,1112.541,1344.561,1176.951,1308.214,1269.658z"/>
		
			<rect x="1488.952" y="765.779" transform="matrix(0.2174 -0.9761 0.9761 0.2174 390.7469 2143.4863)" style="fill:#EB5648;" width="86.206" height="124.588"/>
		<g>
			<path style="fill:#D4E8FF;" d="M1527.181,842.367l6.066,1.351c1.107,0.247,2.21-0.432,2.489-1.532l10.785-42.541
				c0.139-0.549,0.051-1.132-0.247-1.614c-0.297-0.483-0.776-0.824-1.33-0.948l-8.564-1.907c-0.554-0.123-1.132-0.017-1.607,0.294
				c-0.474,0.311-0.802,0.801-0.909,1.357l-8.288,43.097C1525.364,841.038,1526.074,842.121,1527.181,842.367z"/>
			<path style="fill:#D4E8FF;" d="M1529.517,846.175c-4.168-0.928-8.036,1.629-8.998,5.949c-0.962,4.32,1.455,8.278,5.623,9.206
				c4.236,0.943,8.02-1.559,8.998-5.95C1536.118,850.99,1533.753,847.118,1529.517,846.175z"/>
		</g>
		<path style="fill:#F99370;" d="M1513.161,859.118c4.685-0.31-0.937,5.488-0.061,8.907l16.633,3.704c0,0-2.126,8.348-14.953,17.273
			c-2.905,2.021-12.829-4.674-12.829-8.149C1501.951,874.013,1509.561,859.356,1513.161,859.118z"/>
	</g>
	<g id="_x32_">
		<path style="fill:#1D3F70;" d="M2047.932,1306.582c-0.937,0.485,11.61,0.388,10.801,1.326
			c-26.416,22.846-65.826,30.079-95.075,7.826v-0.032c-8.703-6.368-17.496-16.613-23.607-27.327l7.179-11.641
			c57.019,35.17,79.59-24.851,125.958-29.525l-9.281,13.55L2047.932,1306.582z"/>
		<path style="fill:#F99370;" d="M2111.241,1708.646l0.87-0.454c0,0.609,0.753,2.724,1.362,2.724l25.728,0.53
			c0.609,0,0.984-1.147,0.984-1.755l2.194-0.628c0-3.853-0.317-5.249-2.019-8.231c-6.255-8.313,1.212-45.494,0.996-55.208
			c1.543-2.656-27.093-0.572-27.493-1.199c-0.644,0.001-1.15,0.549-1.099,1.191l3.37,42.484
			C2117.646,1696.166,2111.457,1701.041,2111.241,1708.646z"/>
		<path style="fill:#F99370;" d="M1999.714,1712.348h51.247c4.473-0.18,4.439-4.743,3.615-8.281
			c-2.822-12.753,2.166-42.037,3.091-55.153c0.246-2.401-1.639-4.489-4.053-4.489h-22.617c-2.451,0-4.348,2.149-4.043,4.581
			l4.114,32.797c2.235,14.249-14.761,16.965-24.451,18.54C2000.237,1700.805,1989.568,1709.513,1999.714,1712.348z"/>
		<path style="fill:#3A72AA;" d="M2056.528,1707.031c-0.138,2.513-1.384,5.379-4.295,5.317c0,0-53.157,0-53.157,0
			c-12.538-4.651,6.249-21.285,30.792-21.186C2047.317,1695.951,2057.119,1682.349,2056.528,1707.031z"/>
		<path style="fill:#3A72AA;" d="M2138.303,1712.348h-22.719c-11.073-1.512-3.095-22.755,11.357-21.22
			C2141.433,1689.293,2149.367,1710.857,2138.303,1712.348z"/>
		<path style="fill:#23659B;" d="M1995.356,1707.031h61.172c-0.225,1.867-0.741,3.681-1.677,5.317h-55.775
			C1996.328,1712.352,1994.38,1709.599,1995.356,1707.031z"/>
		<path style="fill:#23659B;" d="M2138.303,1712.348h-22.719c-2.891,0.003-5.217-2.432-5.039-5.317h32.797
			C2143.517,1709.915,2141.194,1712.352,2138.303,1712.348z"/>
		<path style="fill:#1D3F70;" d="M2066.067,1188.731c0,0-0.269-16.61,14.745-19.559l7.871,8.165L2066.067,1188.731z"/>
		<path style="fill:#3A72AA;" d="M2144.941,1683.356c0,0-24.232,5.886-36.715-0.439c-6.498-40.747-24.535-154.203-30.817-231.949
			c-0.24,4.533-13.439,187.366-15.951,231.949c-8.619,2.884-25.949,6.363-35.648-0.622c-4.356-46.933-18.345-201.455,2.727-327.655
			c0,0,57.746,6.424,102.843-7.204C2143.793,1387.468,2147.081,1635.317,2144.941,1683.356z"/>
		<path style="fill:#23659B;" d="M2035.132,1678.398c-5.921-134.884,7.665-250.892,5.627-252.275
			C2037.197,1426.409,2023.538,1543.453,2035.132,1678.398z"/>
		<path style="fill:#23659B;" d="M2125.875,1678.398c-2.352-138.604-22.948-269.888-26.059-270.387
			C2097.487,1409.756,2117.731,1539.528,2125.875,1678.398z"/>
		<path style="fill:#F99370;" d="M2072.767,1246.749c-1.26-10.989,0.46-26.844,1.991-33.366c2.763-12.865,23.165-7.887,19.774,4.76
			c-0.658-0.414-2.763,22.9-1.31,29.371C2112.369,1253.258,2054.787,1272.144,2072.767,1246.749z"/>
		<path style="fill:#E57D61;" d="M2094.729,1217.082c-0.05,0.354-0.113,0.714-0.196,1.061c-0.474-0.314-1.802,12.549-1.814,21.885
			c-8.773,3.989-18.553,2.235-20.343,1.867c-0.192-11.826,0.895-22.6,2.632-29.365
			C2078.563,1201.081,2096.544,1205.253,2094.729,1217.082z"/>
		<path style="fill:#F99370;" d="M2108.332,1212.282c-2.905,8.791-7.587,18.473-15.674,23.296l-0.012-0.002
			c-3.284,1.938-7.008,2.884-10.854,3.022c-21.602,2.915-42.882-26.495-23.442-41.13c3.204-2.283,6.009-5.595,7.714-8.737
			C2083.386,1155.336,2118.903,1181.546,2108.332,1212.282z"/>
		<path style="fill:#F9F8F3;" d="M2063.24,1215.754l12.805-4.143C2076.114,1218.858,2067.563,1222.353,2063.24,1215.754z"/>
		<path style="fill:#103663;" d="M2035.288,1293.226l-8.893,32.63c-19.048,5.853-39.356,4.527-57.271-6.468
			c19.694,11.124,46.761,4.851,51.03-1.682C2024.648,1310.786,2034.673,1294.229,2035.288,1293.226z"/>
		<path style="fill:#1D3F70;" d="M2139.783,1401.924c-2.063,2.507-4.262,5.021-6.591,7.546c0,0-11.345,2.134-20.231-9.686
			c36.234-76.811-33.72-83.979-19.739-152.272C2139.961,1253.031,2204.979,1322.786,2139.783,1401.924z"/>
		<path style="fill:#C16256;" d="M2074.789,1201.181c-0.574-1.701,2.111-2.563,2.635-0.846
			C2077.998,1202.036,2075.313,1202.898,2074.789,1201.181z"/>
		<path style="fill:#C16256;" d="M2063.615,1197.404c-0.574-1.701,2.111-2.563,2.635-0.846
			C2066.824,1198.259,2064.139,1199.121,2063.615,1197.404z"/>
		<path style="fill:#E57D61;" d="M2108.332,1212.282c-2.905,8.791-7.587,18.473-15.674,23.296l-0.012-0.002
			c-0.67,0.397-1.364,0.753-2.074,1.066c6.291-4.512,11.289-15.554,11.289-15.554l0.296-9.984
			c-7.329-10.28-1.956-19.652-1.956-19.652c-15.303,1.755-18.784-8.074-18.784-8.074c-4.725-0.147-9.219-3.265-9.219-3.265
			C2093.252,1159.009,2117.458,1189.155,2108.332,1212.282z"/>
		<path style="fill:#C16256;" d="M2063.24,1216.278c0.288-0.328,13.96-3.82,13.303-4.828c0.262-1.277-13.205,3.99-13.465,3.806
			C2062.52,1215.419,2062.665,1216.297,2063.24,1216.278z"/>
		<path style="fill:#C16256;" d="M2066.944,1210.057c0.9,0.279,1.668-0.979,0.499-1.084c-1.84,0.347-5.862-1.549-3.642-2.46
			c3.182-1.086,8.146-8.37,5.244-7.066c-0.028,0.051-2.786,5.096-5.59,6.079C2059.612,1207.43,2064.285,1210.062,2066.944,1210.057z
			"/>
		<path style="fill:#103663;" d="M2139.783,1401.924c-2.063,2.507-4.262,5.021-6.591,7.546c0,0-11.554,1.618-20.439-10.202
			c1.306-3.171,2.749-5.231,3.86-8.382C2116.613,1390.886,2123.476,1398.569,2139.783,1401.924z"/>
		<path style="fill:#23659B;" d="M2134.007,1410.989c2.447,0.734,5.02-2.162,1.697-3.002c-17.98,0.785-22.772-11.085-22.967-11.591
			C2104.942,1392.008,2114.52,1412.069,2134.007,1410.989z"/>
		<path style="fill:#F4D4BE;" d="M2020.14,1408.89c0,0,3.527,15.131,31.753,22.594c8.084,2.138,12.756,1.081,13.942-4.524
			c0.595-2.815,2.132-7.713,4.958-9.529c0,0,6.315,2.728,8.698,6.597c5.225,8.483,13.097,0.776,16.928-8.103
			c4.74-10.983,16.749-20.287,19.375-29.499L2020.14,1408.89z"/>
		<path style="fill:#1D3F70;" d="M2135.161,1390.187c-0.919,1.625-1.468,1.368-2.408,0.425
			c-25.356-18.937-34.434,22.441-61.757,23.182c-27.812,2.753-43.283,4.323-50.858-4.906
			c-13.225-20.499,7.81-112.133,24.824-134.323c7.453-11.537,20.676-21.819,27.794-27.806c-0.146,0.601-3.935,16.36,20.468,0.753
			c1.227,0.518,8.963,8.065,8.476,12.104C2102.939,1278.169,2146.957,1369.346,2135.161,1390.187z"/>
		<path style="fill:#1D3F70;" d="M2064.743,1165.059c0,0,7.155-1.97,14.488,0.909c0.84-2.781,2.554-5.348,5.337-7.38
			c1.196,3.38,2.895,6.625,4.831,9.65c0.662-6.356,4.58-11.509,4.58-11.509c1.047,6.089,9.462,10.468,13.431,17.058l0.215-0.305
			c0,0,22.228,8.001,6.207,27.705l0-0.001c-0.66,7.292-4.219,14.668-4.219,14.668c-11.78-10.759-9.242-23.69-3.889-27.052
			c-9.601,3.404-18.152-0.63-22.981-7.002C2075.604,1180.616,2066.875,1176.729,2064.743,1165.059z"/>
		<path style="fill:#103663;" d="M2120.484,1396.014l-5.56-1.156c22.227-50.036-3.913-71.19-17.741-99.381
			C2129.246,1332.581,2134.099,1352.923,2120.484,1396.014z"/>
		<path style="fill:#F99370;" d="M2113.333,1217.763c-3.679,9.88-16.094,5.098-12.193-4.698
			C2104.819,1203.186,2117.234,1207.968,2113.333,1217.763z"/>
		<path style="fill:#C16256;" d="M2109.82,1219.366c2.269-2.375,2.268-6.366,1.233-7.474c-1.886-1.936-5.46-1.707-5.466-0.583
			c0.48,1.133,2.906-0.721,4.643,1.231C2112.103,1214.012,2108.359,1218.765,2109.82,1219.366z"/>
		<path style="fill:#C16256;" d="M2105.111,1217.867c0.8-0.056,2.099-3.684,6.055-3.447c0.286,0.032,0.543-0.185,0.57-0.473
			C2109.157,1211.337,2102.776,1217.918,2105.111,1217.867z"/>
		<path style="fill:#F4D4BE;" d="M2100.728,1248.852c0.132,9.309-23.75,17.527-25.103,17.54l-2.863-8.471
			c-3.675,0.907-6.911,6.052-6.911,6.052c-10.593-10.092-0.632-18.891,6.911-17.225c0,0,0,0.006-0.006,0.012
			c-0.147,0.601-1.812,14.414,20.376,0.274C2095.99,1245.711,2100.728,1248.852,2100.728,1248.852z"/>
		<path style="fill:#23659B;" d="M2061.458,1682.917c0.019-0.035-3.13,1.16-7.48,1.992c0,0,12.175-181.441,13.989-205.655
			c1.814-24.214,9.442-28.286,9.442-28.286S2061.257,1678.999,2061.458,1682.917z"/>
		<path style="fill:#23659B;" d="M2061.938,1674.12c-0.326,5.234-0.504,8.364-0.48,8.797c-8.619,2.884-25.949,6.363-35.648-0.622
			c0,0-0.308-2.875-0.812-8.174C2024.998,1674.12,2041.986,1681.933,2061.938,1674.12z"/>
		<path style="fill:#23659B;" d="M2144.941,1683.356c0,0-24.232,5.886-36.715-0.439c0,0-0.516-3.153-1.417-8.797
			c0,0,16.514,4.784,37.871,0C2144.775,1679.621,2144.864,1682.899,2144.941,1683.356z"/>
		<path style="fill:#103663;" d="M1953.83,1280.465c-1.605,7.388-10.448,13.279-10.448,13.279c-1.132-1.714-2.264-3.525-3.331-5.369
			l7.179-11.641C1949.396,1277.93,1951.792,1279.464,1953.83,1280.465z"/>
		<path style="fill:#395B96;" d="M1963.625,1315.637c0.291,0.226,0.583,0.452,0.873,0.711c-0.29-0.227-0.549-0.421-0.84-0.615
			v-0.032C1963.625,1315.669,1963.625,1315.637,1963.625,1315.637z"/>
		<path style="fill:#C16256;" d="M2082.275,1200.825c0.049,0,0.099-0.006,0.148-0.018c0.32-0.082,0.514-0.405,0.434-0.726
			c-0.045-0.18-1.173-4.427-7.404-6.552c-0.315-0.107-0.655,0.061-0.762,0.374c-0.107,0.314,0.061,0.655,0.375,0.762
			c5.577,1.901,6.587,5.555,6.627,5.71C2081.764,1200.644,2082.008,1200.825,2082.275,1200.825z"/>
		<path style="fill:#F99370;" d="M1940.051,1288.375c0,0-12.55,0.296-16.368-5.274c-3.818-5.569-2.731-15.048,0.906-15.594
			c10.351-1.553,22.407,8.61,22.638,9.204c0.006,0.016-0.002,0.027,0,0.044C1947.278,1277.152,1945.698,1283.919,1940.051,1288.375z
			"/>
		<path style="fill:#C16256;" d="M2064.227,1193.062c0.138,0,0.276-0.047,0.389-0.143c2.378-2.025,5.91-0.28,5.946-0.263
			c0.296,0.149,0.656,0.032,0.806-0.264c0.15-0.295,0.032-0.656-0.263-0.806c-0.174-0.088-4.276-2.128-7.268,0.418
			c-0.252,0.215-0.283,0.594-0.068,0.846C2063.888,1192.99,2064.057,1193.062,2064.227,1193.062z"/>
		<path style="fill:#1D3F70;" d="M1930.606,1301.66l-27.41-136.782c-0.056-0.278,0.124-0.548,0.402-0.604
			c0.271-0.054,0.534,0.116,0.599,0.382l32.916,135.563c0.434,1.789-0.664,3.591-2.453,4.025c-1.789,0.434-3.591-0.664-4.025-2.452
			C1930.626,1301.752,1930.614,1301.7,1930.606,1301.66z"/>
		<path style="fill:#F99370;" d="M1932.846,1276.306c-3.806-13.512-13.871-8.493-14.068-12.761c0.702-3.112,5.25-1.706,7.622-1.478
			c4.011,0.898,7.591,3.464,10.139,6.63C1944.652,1277.355,1935.649,1282.161,1932.846,1276.306z"/>
		<path style="fill:#F99370;" d="M1924.708,1284.762c-6.919-0.353-5.648-8.58,0.536-4.615l-0.117-0.006
			C1928.769,1280.26,1928.116,1284.957,1924.708,1284.762z"/>
		<path style="fill:#F99370;" d="M1923.588,1280.363c-8.138-2.077-2.46-9.688,1.099-4.69c-0.066-0.094,0.298,0.185,0.417,0.188
			c0.02,0.009,0.156,0.046,0.048,0.02C1928.735,1276.735,1926.712,1281.194,1923.588,1280.363z"/>
		<path style="fill:#F99370;" d="M1922.267,1275.791c-6.071-2.266-2.881-6.676,0.873-5.15
			C1929.211,1272.908,1926.021,1277.318,1922.267,1275.791z"/>
		<path style="fill:#F99370;" d="M1921.743,1271.642c-6.071-2.266-2.88-6.676,0.873-5.15
			C1928.686,1268.759,1925.496,1273.169,1921.743,1271.642z"/>
	</g>
	<g id="_x31_">
		<path style="fill:#F99370;" d="M577.378,1736.2l-44.676-22.646c1.375-2.197,6.876-6.934,9.761-16.746
			c15.581-52.998,40.276-103.97,44.113-112.165l41.401,8.567l-65.115,107.946c-2.492,3.69-2.005,8.621,1.142,11.772
			c6.661,7.234,16.284,10.435,18.873,19.224C583.411,1735.245,580.176,1737.618,577.378,1736.2z"/>
		<path style="fill:#EB5648;" d="M533.529,1708.538c-0.587,1.611-0.915,3.299-0.827,5.016l45.361,22.993
			c2.206,1.118,4.902-0.243,5.225-2.694c0.742-5.734-1.661-15.82-22.016-27.511c0,0-8.186-1.489-18.809-9.534
			C542.463,1696.808,535.897,1702,533.529,1708.538z"/>
		<path style="fill:#E8C0A6;" d="M570.749,1725.485c0.361,0.176,0.808,0.131,1.129-0.149c3.74-3.256,7.374-2.992,7.527-2.979
			c1.32,0.135,1.517-1.949,0.188-2.051c-0.187-0.018-4.631-0.387-9.068,3.477C569.97,1724.245,570.098,1725.183,570.749,1725.485z"
			/>
		<path style="fill:#E8C0A6;" d="M564.044,1721.005c0.39,0.19,0.874,0.119,1.192-0.21c3.854-3.979,9.127-4.1,9.179-4.101
			c4.31-3.201-5.945-2.628-10.659,2.668C563.269,1719.847,563.424,1720.713,564.044,1721.005z"/>
		<path style="fill:#E8C0A6;" d="M556.424,1715.886c0.378,0.184,0.847,0.124,1.167-0.184c4.216-4.061,9.539-4.736,9.593-4.743
			c3.93-3.652-6.039-1.86-11.022,3.259C555.647,1714.695,555.792,1715.59,556.424,1715.886z"/>
		<path style="fill:#CE3932;" d="M583.298,1733.766l-49.77-25.227c-0.587,1.611-0.915,3.299-0.827,5.016l45.361,22.993
			C580.297,1737.684,583.034,1736.258,583.298,1733.766z"/>
		<path style="fill:#F99370;" d="M719.42,1735.155l-50.821-0.141c-0.856-2.677,1.999-14.91,1.195-19.35
			c-17.091-94.343-14.662-127.819-14.949-131.556l48.509-3.748l-13.385,130.016c-0.568,4.417,2.083,8.603,6.31,10.003
			c9.413,3.716,20.922,1.698,26.284,9.994C723.631,1732.595,721.886,1735.162,719.42,1735.155z"/>
		<path style="fill:#EB5648;" d="M667.084,1730.161c0.2,1.703,0.665,3.359,1.515,4.853l50.849,0.141
			c2.472,0.007,4.269-2.421,3.457-4.756c-1.914-5.456-8.592-13.385-32.026-14.676c0,0-7.981,2.351-21.084-0.059
			C669.794,1715.665,666.262,1723.256,667.084,1730.161z"/>
		<path style="fill:#E8C0A6;" d="M708.599,1728.318c1.705-4.147,5.532-6.663,5.672-6.442c1.24-0.474,0.48-2.421-0.755-1.918
			c-0.175,0.07-4.309,1.738-6.537,7.184C706.548,1728.105,707.834,1729.017,708.599,1728.318z"/>
		<path style="fill:#E8C0A6;" d="M700.596,1727.329c1.552-4.829,6.546-8.519,6.674-8.269c1.193-0.591,0.23-2.463-0.947-1.83
			c-0.22,0.115-5.457,2.875-7.377,9.006C698.612,1727.189,699.865,1727.999,700.596,1727.329z"/>
		<path style="fill:#E8C0A6;" d="M691.49,1726.184c2.363-6.835,7.994-8.759,7.036-10.422c-1.401-1.627-5.994,2.793-8.675,9.294
			C689.478,1726.015,690.745,1726.866,691.49,1726.184z"/>
		<path style="fill:#CE3932;" d="M722.875,1730.316l-55.791-0.155c0.2,1.703,0.665,3.359,1.515,4.853l50.849,0.141
			C721.954,1735.166,723.758,1732.662,722.875,1730.316z"/>
		<path style="fill:#F99370;" d="M682.481,1365.253c63.19-13.953,100.371-76.784,100.831-138.689
			c0.286-7.199-10.232-9.655-13.202-3.195c-23.338,52.042-39.791,86.04-97.324,104.281
			C648.22,1334.102,657.873,1371.483,682.481,1365.253z"/>
		<path style="fill:#F99370;" d="M641.283,1327.545c-72.84,2.684-148.77,78.179-51.518,118.254
			c9.899,3.724,13.881-7.924,5.913-13.425c-54.966-44.13,10.735-59.882,50.03-66.25
			C670.72,1362.52,666.408,1325.376,641.283,1327.545z"/>
		<path style="fill:#1D3F70;" d="M542.617,1387.478c0.542,2.418,1.409,3.679,1.409,3.679c-0.365-0.607,22.745-1.917,30.018,7.847
			c3.626-0.086,11.288-3.542,14.962-8.325c6.44-7.093,19.88-12.266,26.027-14.558l31.261-59.536
			C631.052,1310.704,537.481,1342.978,542.617,1387.478z"/>
		<path style="fill:#3A72AA;" d="M706.67,1580.358c-0.545,6.533-0.954,10.349-0.954,10.349
			c-64.058,23.352-125.787,0.315-125.787,0.315c0.073-2.663,0.021-5.39-0.126-8.179c-1.437-28.364-12.667-63.323-7.686-98.598
			c5.474-38.734,19-60.031,19-60.031l106.42,5.694C714.21,1468.076,709.103,1551.218,706.67,1580.358z"/>
		<path style="fill:#F99370;" d="M766.164,1205.135c2.771-0.551,2.994,6.15,4.84,7.947c2.007-4.071,2.851-8.754,2.878-8.768
			c-0.022-5.622-0.349-11.231-0.929-16.829c3.543-7.779,5.343,13.655,5.903,15.724c0.028,0.002,0.056,0.005,0.084,0.007
			c1.206-5.763,2.098-11.603,2.492-17.478c5.404-7.18,2.159,16.579,2.08,18.807c0.013,0.006,0.025,0.013,0.037,0.019
			c2.052-5.228,3.465-10.711,4.278-16.272c6.088-6.75,0.919,17.128,0.113,19.239c0.017,0.015,0.034,0.029,0.051,0.043
			c2.21-3.872,3.924-8.025,5.414-12.232c6.573-5.474-0.836,14.547-1.783,16.401c-0.013,1.604-3.178,9.225-8.991,17.417
			c-1.905,2.685-10.508-0.598-11.893-3.519c-1.299-2.739-2.006-6.811-2.303-8.275
			C767.394,1214.608,763.458,1207.194,766.164,1205.135z"/>
		<path style="fill:#23659B;" d="M593.224,1587.226l-4.217-0.415c0.025-0.254,2.438-25.897-1.774-72.462
			c-4.282-47.337,13.703-90.528,13.885-90.959l3.903,1.65c-0.178,0.421-17.752,42.677-13.568,88.928
			C595.705,1560.981,593.249,1586.968,593.224,1587.226z"/>
		<path style="fill:#23659B;" d="M693.7,1589.487l-4.199-0.568c9.999-73.843-6.469-159.287-6.637-160.142l4.158-0.814
			C687.191,1428.824,703.792,1514.957,693.7,1589.487z"/>
		<path style="fill:#23659B;" d="M676.057,1593.344l-4.228-0.266c3.519-56.034-4.204-161.722-4.282-162.782l4.226-0.313
			C671.851,1431.047,679.595,1537.021,676.057,1593.344z"/>
		<path style="fill:#23659B;" d="M657.021,1593.217l-4.237-0.012c0.001-0.418,0.083-42.22-3.083-78.131
			c-3.19-36.175-0.036-84.59-0.003-85.075l4.228,0.281c-0.032,0.481-3.164,48.577-0.003,84.421
			C657.106,1550.809,657.022,1592.797,657.021,1593.217z"/>
		<path style="fill:#23659B;" d="M630.094,1593.282l-4.234-0.143c0.013-0.396,1.327-40.082,0-78.178
			c-1.337-38.382,6.325-85.599,6.402-86.07l4.182,0.686c-0.077,0.469-7.672,47.281-6.35,85.236
			C631.427,1553.06,630.108,1592.885,630.094,1593.282z"/>
		<path style="fill:#23659B;" d="M611.408,1589.463l-4.219-0.395c1.601-17.108,1.195-33.545,0.582-58.426
			c-0.182-7.399-0.389-15.786-0.557-24.987c-0.711-38.996,9.915-78.407,10.022-78.801l4.088,1.115
			c-0.106,0.388-10.574,39.234-9.874,77.607c0.167,9.188,0.374,17.568,0.557,24.961
			C612.602,1554.67,613.032,1572.106,611.408,1589.463z"/>
		
			<rect x="644.589" y="1298.069" transform="matrix(0.0922 -0.9957 0.9957 0.0922 -705.8205 1840.1571)" style="fill:#F99370;" width="23.468" height="18.234"/>
		<path style="fill:#F99370;" d="M633.081,1277.479c-1.817,35.782,55.848,35.849,53.518-0.471
			c-0.126-7.166-2.228-12.123-2.373-23.546c-0.334-26.446-37.434-31.288-43.318-4.21
			C638.593,1259.935,633.918,1267.535,633.081,1277.479z"/>
		<path style="fill:#103663;" d="M570.98,1396.26c1.085,0.803,2.119,1.707,3.064,2.743c0,0,8.151-0.426,14.962-8.325
			c5.511-6.383,19.145-11.971,24.142-13.869l-5.312-16.709c0,0-13.92,12.623-21.087,25.043
			C579.758,1397.263,571.376,1396.311,570.98,1396.26z"/>
		<path style="fill:#1D3F70;" d="M591.115,1424.215c0,0,43.651,16.127,106.422,5.694c1.436-15.14,1.446-44.176-2.483-63.108
			c-8.325-62.317-80.54-81.581-92.749,18.945C599.484,1402.61,597.779,1410.322,591.115,1424.215z"/>
		<path style="fill:#1D3F70;" d="M664.416,1318.684l30.645,48.118c39.267-11.493,85.902-46.989,81.083-77.765l-0.007-0.001
			c-1.066-4.125-2.96-6.359-2.96-6.359c-17.083,0.111-26.329-12.908-26.329-12.908
			C719.962,1275.871,722.867,1314.809,664.416,1318.684z"/>
		<path style="fill:#662948;" d="M681.547,1239.71c0,0,13.736,4.554-0.869,26.535c-9.03,13.59,14,34.159-4.469,52.603
			c-42.862,56.364-165.283,27.73-98.547-32.832c20.01-10.761,19.142-21.767,25.858-35.6
			C612.464,1231.991,653.034,1197.35,681.547,1239.71z"/>
		<path style="fill:#103663;" d="M542.617,1387.478c0.542,2.418,1.409,3.679,1.409,3.679c-0.365-0.607,22.745-1.917,30.018,7.847
			c0,0,2.5-0.134,5.89-1.591C579.934,1397.413,565.598,1378.251,542.617,1387.478z"/>
		<path style="fill:#103663;" d="M738.839,1272.309c20.152,22.461,37.299,16.728,37.299,16.728c-1.066-4.125-2.96-6.359-2.96-6.359
			c-17.083,0.111-26.329-12.908-26.329-12.908C743.819,1269.987,741.212,1270.891,738.839,1272.309z"/>
		<path style="fill:#103663;" d="M684.944,1358.494c0.393,1.062,13.093,35.229,13.184,58.08c0.436-13.635-0.134-34.438-3.073-49.773
			C694.785,1366.755,691.313,1365.309,684.944,1358.494z"/>
		<path style="fill:#23659B;" d="M706.67,1580.358c-0.545,6.533-0.954,10.349-0.954,10.349
			c-64.058,23.352-125.787,0.315-125.787,0.315c0.073-2.663,0.021-5.39-0.126-8.179l0.01-0.01
			C579.814,1582.833,648.003,1602.85,706.67,1580.358z"/>
	</g>
</g>
</svg>
